<svg xmlns="http://www.w3.org/2000/svg" width="255.756" height="50" viewBox="0 0 255.756 50">
    <defs>
        <style>
            .cls-1{fill:#b6d3c4;fill-rule:evenodd}
        </style>
    </defs>
    <g id="Amazon.com-Logo" transform="translate(144.534 -649.877)">
        <g id="g1967" transform="translate(-144.534 649.877)">
            <path id="path8" d="M12.708 765.8c-9.642 7.107-23.617 10.9-35.649 10.9a64.51 64.51 0 0 1-43.551-16.618c-.9-.816-.094-1.928.989-1.293a87.653 87.653 0 0 0 43.573 11.549 86.643 86.643 0 0 0 33.237-6.8c1.632-.693 3 1.069 1.4 2.253" class="cls-1" transform="translate(90.224 -726.694)"/>
            <path id="path10" d="M204.876 756.648c-1.228-1.574-8.147-.744-11.252-.376-.946.116-1.091-.708-.238-1.3 5.511-3.878 14.553-2.759 15.607-1.459s-.274 10.371-5.453 14.7c-.794.664-1.553.311-1.2-.571 1.163-2.9 3.77-9.411 2.535-10.992" class="cls-1" transform="translate(-97.936 -722.133)"/>
            <path id="path12" d="M193.991 650.194v-3.77a.93.93 0 0 1 .953-.953h16.878a.94.94 0 0 1 .975.953v3.228a5.311 5.311 0 0 1-1.271 2.369l-8.746 12.487a18.635 18.635 0 0 1 9.627 2.066 1.718 1.718 0 0 1 .9 1.466v4.023c0 .549-.607 1.192-1.242.859a19.443 19.443 0 0 0-17.832.029c-.585.318-1.2-.318-1.2-.867v-3.821a4.559 4.559 0 0 1 .621-2.593l10.133-14.531h-8.818a.934.934 0 0 1-.975-.946" class="cls-1" transform="translate(-98.086 -644.733)"/>
            <path id="path14" d="M-42.9 672.444h-5.135a.97.97 0 0 1-.917-.874v-26.354a.964.964 0 0 1 .989-.946h4.788a.967.967 0 0 1 .932.881v3.449h.094c1.249-3.329 3.6-4.882 6.76-4.882 3.214 0 5.222 1.553 6.666 4.882a7.28 7.28 0 0 1 7.092-4.882 7.3 7.3 0 0 1 5.944 2.882c1.625 2.217 1.293 5.438 1.293 8.262l-.006 16.628a.97.97 0 0 1-.989.953h-5.128a.976.976 0 0 1-.924-.953v-13.968a32.988 32.988 0 0 0-.144-4.94 2.674 2.674 0 0 0-3.019-2.268 3.411 3.411 0 0 0-3.069 2.159 15.954 15.954 0 0 0-.477 5.048v13.969a.97.97 0 0 1-.989.953h-5.128a.971.971 0 0 1-.924-.953l-.007-13.968c0-2.94.484-7.266-3.163-7.266-3.691 0-3.546 4.218-3.546 7.266v13.968a.97.97 0 0 1-.989.953" class="cls-1" transform="translate(77.233 -643.461)"/>
            <path id="path16" d="M287.143 643.714c7.62 0 11.743 6.543 11.743 14.863 0 8.038-4.557 14.416-11.743 14.416-7.482 0-11.556-6.543-11.556-14.7 0-8.2 4.124-14.582 11.556-14.582m.043 5.381c-3.784 0-4.023 5.157-4.023 8.371s-.051 10.1 3.979 10.1c3.979 0 4.167-5.547 4.167-8.927a24.364 24.364 0 0 0-.766-6.991 3.212 3.212 0 0 0-3.358-2.549" class="cls-1" transform="translate(-157.9 -643.461)"/>
            <path id="path18" d="M380.13 672.444h-5.113a.976.976 0 0 1-.924-.953l-.007-26.361a.971.971 0 0 1 .989-.859h4.759a.983.983 0 0 1 .917.737v4.03h.094c1.437-3.6 3.452-5.323 7-5.323a6.738 6.738 0 0 1 5.995 3.106c1.343 2.109 1.343 5.655 1.343 8.2v16.59a.986.986 0 0 1-.989.831h-5.15a.973.973 0 0 1-.91-.831V657.3c0-2.882.332-7.1-3.214-7.1a3.356 3.356 0 0 0-2.968 2.109 11.664 11.664 0 0 0-.816 4.991v14.19a.987.987 0 0 1-1 .953" class="cls-1" transform="translate(-229.263 -643.461)"/>
            <path id="path20" d="M462.33 734.095a2.531 2.531 0 1 1 2.528 2.405 2.464 2.464 0 0 1-2.528-2.405" class="cls-1" transform="translate(-293.198 -707.206)"/>
            <path id="path22" d="M657.314 672.033a.967.967 0 0 1-.953-.953v-26.355a.952.952 0 0 1 .917-.867h1.885a.965.965 0 0 1 .982.867v3.842c1.343-3.048 3.842-5.431 7-5.431h.383c3.351 0 5.8 2.47 6.709 6.06 1.423-3.546 4.1-6.06 7.62-6.06h.39a7.1 7.1 0 0 1 6.132 4.044c1.2 2.333 1.156 5.438 1.156 8.046l-.007 15.853a.964.964 0 0 1-.917.953h-2.253a.985.985 0 0 1-.953-.823v-15.982c0-1.885.094-3.886-.672-5.6a4.632 4.632 0 0 0-3.878-2.932 5.97 5.97 0 0 0-4.507 3.156c-1.387 2.275-1.336 4.326-1.336 6.984v14.394a.987.987 0 0 1-.917.809h-2.239a.973.973 0 0 1-.961-.953l-.014-16.907a10.82 10.82 0 0 0-.809-4.774 4.81 4.81 0 0 0-3.878-2.708 6 6 0 0 0-4.218 2.766 11.18 11.18 0 0 0-1.488 6.435v15.188a.976.976 0 0 1-.924.953h-2.246" class="cls-1" transform="translate(-433.777 -643.043)"/>
            <path id="path24" d="M575.914 672.582c-7.287 0-10.552-7.432-10.552-14.863 0-7.815 3.835-14.582 11.173-14.582h.39c7.136 0 10.689 7.208 10.689 14.64 0 7.872-3.936 14.806-11.317 14.806h-.383m.534-3.6c2.4-.079 4.29-1.567 5.41-4.044a17.574 17.574 0 0 0 1.2-7.215 16.073 16.073 0 0 0-1.538-7.706 5.539 5.539 0 0 0-10.393.664 18.259 18.259 0 0 0-1.2 7.042 18.872 18.872 0 0 0 1.387 7.713 6.081 6.081 0 0 0 5.135 3.546" class="cls-1" transform="translate(-367.847 -643.043)"/>
            <path id="path26" d="M493.5 668.862c3.272-.1 4.991-2.723 5.7-6.117a1 1 0 0 1 .946-.751l2.159-.007a.913.913 0 0 1 .939.888c-1 5.785-4.485 9.707-9.454 9.707h-.39c-7.237 0-10.357-7.266-10.357-14.64 0-7.316 3.163-14.806 10.4-14.806h.39c5.027 0 8.609 3.871 9.389 9.656a.945.945 0 0 1-.881.859l-2.261-.029a1.051 1.051 0 0 1-.859-.924c-.542-3.228-2.4-5.8-5.489-5.9-4.918.159-6.32 6.211-6.32 10.87 0 4.485 1.17 11.036 6.088 11.195" class="cls-1" transform="translate(-308.204 -643.043)"/>
            <path id="path28" d="M107.881 659.19c0 2 .051 3.669-.961 5.446a4.172 4.172 0 0 1-3.553 2.333c-1.972 0-3.127-1.5-3.127-3.719 0-4.377 3.922-5.171 7.641-5.171v1.112m5.178 12.516a1.072 1.072 0 0 1-1.213.123 12.515 12.515 0 0 1-2.947-3.423c-2.817 2.874-4.817 3.734-8.465 3.734-4.326 0-7.685-2.665-7.685-8a8.715 8.715 0 0 1 5.475-8.392c2.788-1.228 6.681-1.444 9.656-1.784v-.665c0-1.221.094-2.665-.628-3.719a3.418 3.418 0 0 0-2.882-1.336 3.907 3.907 0 0 0-4.124 3.084 1.074 1.074 0 0 1-.9.939l-4.976-.534a.9.9 0 0 1-.766-1.076c1.141-6.038 6.6-7.858 11.483-7.858 2.5 0 5.763.664 7.735 2.557 2.5 2.333 2.261 5.446 2.261 8.833v8c0 2.405 1 3.459 1.936 4.759a.971.971 0 0 1-.022 1.365c-1.047.874-2.911 2.5-3.936 3.409l-.007-.014" class="cls-1" transform="translate(-25.432 -642.796)"/>
            <path id="path30" d="M-136.485 659.19c0 2 .051 3.669-.961 5.446a4.164 4.164 0 0 1-3.554 2.333c-1.972 0-3.12-1.5-3.12-3.719 0-4.377 3.922-5.171 7.634-5.171v1.112m5.178 12.516a1.072 1.072 0 0 1-1.213.123 12.642 12.642 0 0 1-2.947-3.423c-2.817 2.874-4.81 3.734-8.465 3.734-4.319 0-7.685-2.665-7.685-8a8.725 8.725 0 0 1 5.475-8.392c2.788-1.228 6.681-1.444 9.656-1.784v-.665c0-1.221.094-2.665-.621-3.719a3.436 3.436 0 0 0-2.882-1.336 3.914 3.914 0 0 0-4.131 3.084 1.075 1.075 0 0 1-.888.939l-4.983-.534a.909.909 0 0 1-.766-1.076c1.148-6.038 6.6-7.858 11.483-7.858 2.5 0 5.763.664 7.735 2.557 2.5 2.333 2.261 5.446 2.261 8.833v8c0 2.405 1 3.459 1.936 4.759a.965.965 0 0 1-.014 1.365c-1.047.874-2.911 2.5-3.936 3.409l-.014-.014" class="cls-1" transform="translate(151.616 -642.796)"/>
        </g>
    </g>
</svg>
