<svg xmlns="http://www.w3.org/2000/svg" width="100" height="100" viewBox="0 0 100 100">
    <defs>
        <style>
            .cls-1{fill:#16c563}
        </style>
    </defs>
    <g id="browser">
        <path id="Path_276" d="M100 37.1a19.371 19.371 0 0 0-10.119-17L90 20a50.054 50.054 0 0 0-8.561-8.837l1.969-1.969a4.783 4.783 0 0 0 2.073.484 4.839 4.839 0 1 0-4.839-4.839 4.762 4.762 0 0 0 .485 2.073l-6.475 6.475a4.758 4.758 0 0 0-3.961-.1l-6.76-6.2a4.776 4.776 0 0 0 .582-2.252 4.839 4.839 0 0 0-9.677 0 4.762 4.762 0 0 0 .485 2.073l-6.475 6.475a4.8 4.8 0 0 0-2.074-.484 4.839 4.839 0 1 0 4.839 4.839 4.762 4.762 0 0 0-.485-2.073L57.6 9.194a4.758 4.758 0 0 0 3.961.1l6.76 6.2a4.729 4.729 0 0 0 1.086 5.877 19.407 19.407 0 0 0-6.99 9.277H35.483V16.129h-9.677v14.516H22.58V8.065H12.9v22.58H9.677V0H0v33.871h2.658A50.006 50.006 0 1 0 100 50a50.455 50.455 0 0 0-.651-8.009A19.228 19.228 0 0 0 100 37.1zm-79.033 9.674h42.94a19.355 19.355 0 0 0 15.124 9.6v29.11H20.967zm45.86-17.953a20.336 20.336 0 0 0 4.71 3.058 24.189 24.189 0 0 0 0 10.435 20.319 20.319 0 0 0-4.71 3.058 15.97 15.97 0 0 1 0-16.551zm13.821-7.255a23.215 23.215 0 0 1 5.2 8.346 18.863 18.863 0 0 1-10.405 0 23.479 23.479 0 0 1 5.2-8.348zm0 12.3a21.67 21.67 0 0 0 6.052-.85 21.343 21.343 0 0 1 .4 4.076 21.093 21.093 0 0 1-.4 4.074 21.975 21.975 0 0 0-12.1 0 21.344 21.344 0 0 1-.4-4.076 21.092 21.092 0 0 1 .4-4.074 21.7 21.7 0 0 0 6.045.855zm0 18.756a23.215 23.215 0 0 1-5.2-8.346 18.863 18.863 0 0 1 10.405 0 23.479 23.479 0 0 1-5.2 8.348zm-4.269 0a16.121 16.121 0 0 1-7.615-4.674 16.815 16.815 0 0 1 3.668-2.5 26.061 26.061 0 0 0 3.94 7.184zm12.492-7.171a16.816 16.816 0 0 1 3.668 2.5 16.121 16.121 0 0 1-7.615 4.674 26.107 26.107 0 0 0 3.941-7.164zm5.6-.089a20.336 20.336 0 0 0-4.71-3.058 24.189 24.189 0 0 0 0-10.435 20.319 20.319 0 0 0 4.71-3.058 15.97 15.97 0 0 1 0 16.551zm-1.93-19.137a16.815 16.815 0 0 1-3.668 2.5 26.17 26.17 0 0 0-3.947-7.172 16.108 16.108 0 0 1 7.615 4.674zM85.484 3.226a1.613 1.613 0 1 1-1.613 1.613 1.614 1.614 0 0 1 1.613-1.613zM74.193 17.742a1.613 1.613 0 1 1-1.613-1.613 1.614 1.614 0 0 1 1.613 1.613zm-27.419 1.613a1.613 1.613 0 1 1 1.613-1.613 1.614 1.614 0 0 1-1.613 1.613zm11.29-14.516a1.613 1.613 0 1 1 1.613 1.613 1.614 1.614 0 0 1-1.613-1.613zm18.87 10.83l2.214-2.215a47.131 47.131 0 0 1 5 4.621 18.31 18.31 0 0 0-6.756-.039c.006-.1.031-.194.031-.3a4.762 4.762 0 0 0-.485-2.073zm-.562 5.892a26.108 26.108 0 0 0-3.947 7.172 16.816 16.816 0 0 1-3.668-2.5 16.108 16.108 0 0 1 7.615-4.671zM62.419 43.548H20.967v-9.677h40.615a18.638 18.638 0 0 0 .837 9.677zM29.032 19.355h3.226v11.29h-3.226zm-12.9-8.065h3.226v19.355h-3.229zM3.225 3.226h3.226v27.419H3.225zm0 46.774a46.536 46.536 0 0 1 2.869-16.129h11.648v49.952A46.633 46.633 0 0 1 3.225 50zm20.549 38.71h52.451a46.674 46.674 0 0 1-52.451 0zm73-38.71a46.633 46.633 0 0 1-14.516 33.823V56.371a19.353 19.353 0 0 0 14.429-8.457c.031.7.087 1.388.087 2.085zm0 0" class="cls-1" data-name="Path 276"/>
        <path id="Path_277" d="M120 184h3.226v3.226H120zm0 0" class="cls-1" data-name="Path 277" transform="translate(-95.807 -146.903)"/>
        <path id="Path_278" d="M152 184h3.226v3.226H152zm0 0" class="cls-1" data-name="Path 278" transform="translate(-121.355 -146.903)"/>
        <path id="Path_279" d="M184 184h3.226v3.226H184zm0 0" class="cls-1" data-name="Path 279" transform="translate(-146.904 -146.903)"/>
        <path id="Path_280" d="M120 267.355h25.806V248H120zm3.226-16.129h19.355v12.9h-19.355zm0 0" class="cls-1" data-name="Path 280" transform="translate(-95.807 -198)"/>
        <path id="Path_281" d="M120 360h11.29v3.226H120zm0 0" class="cls-1" data-name="Path 281" transform="translate(-95.807 -287.419)"/>
        <path id="Path_282" d="M192 360h11.29v3.226H192zm0 0" class="cls-1" data-name="Path 282" transform="translate(-153.291 -287.419)"/>
        <path id="Path_283" d="M120 392h25.806v3.226H120zm0 0" class="cls-1" data-name="Path 283" transform="translate(-95.807 -312.968)"/>
        <path id="Path_284" d="M264 312v12.9h22.581V312zm3.226 3.226h6.452v6.452h-6.452zm16.129 6.452H276.9v-6.452h6.452zm0 0" class="cls-1" data-name="Path 284" transform="translate(-210.775 -249.097)"/>
        <path id="Path_285" d="M280 392h3.226v3.226H280zm0 0" class="cls-1" data-name="Path 285" transform="translate(-223.549 -312.968)"/>
        <path id="Path_286" d="M312 392h3.226v3.226H312zm0 0" class="cls-1" data-name="Path 286" transform="translate(-249.097 -312.968)"/>
        <path id="Path_287" d="M344 392h3.226v3.226H344zm0 0" class="cls-1" data-name="Path 287" transform="translate(-274.646 -312.968)"/>
        <path id="Path_288" d="M264 264h3.226v6.452H264zm0 0" class="cls-1" data-name="Path 288" transform="translate(-210.775 -210.774)"/>
        <path id="Path_289" d="M296 264h3.226v6.452H296zm0 0" class="cls-1" data-name="Path 289" transform="translate(-236.323 -210.774)"/>
        <path id="Path_290" d="M328 264h3.226v6.452H328zm0 0" class="cls-1" data-name="Path 290" transform="translate(-261.871 -210.774)"/>
    </g>
</svg>
