<svg xmlns="http://www.w3.org/2000/svg" width="107.614" height="50" viewBox="0 0 107.614 50">
    <defs>
        <style>
            .cls-1{fill:#b6d3c4}.cls-2{fill:#edfcf5}
        </style>
    </defs>
    <g id="CNN">
        <path id="Path_360" d="M75.814 25.016a16.651 16.651 0 0 0 16.632 16.632h15.536a1.823 1.823 0 0 0 1.732-1.726V9.443a3.492 3.492 0 0 1 6.494-1.783l9.76 16.828 9.755 16.822a1.451 1.451 0 0 0 2.692-.753V9.443a3.491 3.491 0 0 1 6.495-1.783l9.754 16.829 9.748 16.821a1.451 1.451 0 0 0 2.691-.753V.218h-6.123V24.23L149.525 4.518a9.272 9.272 0 0 0-17.233 4.756V24.23L120.837 4.518A9.272 9.272 0 0 0 103.6 9.275v24.574a1.637 1.637 0 0 1-1.648 1.676h-9.44a10.509 10.509 0 0 1 0-21.018h7.91V8.383h-7.976a16.651 16.651 0 0 0-16.632 16.633" class="cls-1" data-name="Path 360" transform="translate(-67.655)"/>
        <path id="Path_361" d="M101.49 2.021v40.34A3.492 3.492 0 0 1 95 44.144l-9.753-16.829c-4.754-8.2-9.669-16.685-9.749-16.821a1.45 1.45 0 0 0-2.691.752v31.115a3.492 3.492 0 0 1-6.495 1.783l-9.76-16.829-9.76-16.821a1.45 1.45 0 0 0-2.691.752v30.48a3.869 3.869 0 0 1-3.773 3.767H24.792a18.674 18.674 0 1 1 0-37.348h7.976V2.021H24.8a24.8 24.8 0 1 0 0 49.6h15.683c5.942 0 9.763-3.478 9.755-9.9V27.574s11.174 19.233 11.455 19.712a9.272 9.272 0 0 0 17.233-4.756V27.574l11.455 19.712a9.273 9.273 0 0 0 17.233-4.756V2.021z" class="cls-1" data-name="Path 361" transform="translate(0 -1.803)"/>
        <path id="Path_362" d="M56.847 26.82a18.7 18.7 0 0 0 18.674 18.675h15.535a3.869 3.869 0 0 0 3.774-3.768V11.248a1.451 1.451 0 0 1 2.691-.752l9.756 16.822 9.76 16.829a3.492 3.492 0 0 0 6.495-1.784V11.248a1.451 1.451 0 0 1 2.691-.752c.08.137 5 8.619 9.749 16.821 4.975 8.586 9.675 16.7 9.753 16.829a3.492 3.492 0 0 0 6.494-1.784V2.023h-2.042v40.339a1.451 1.451 0 0 1-2.691.753l-9.748-16.821c-4.976-8.587-9.676-16.7-9.754-16.829a3.492 3.492 0 0 0-6.494 1.783v31.114a1.451 1.451 0 0 1-2.691.753l-9.756-16.822c-4.979-8.586-9.683-16.7-9.76-16.828a3.491 3.491 0 0 0-6.494 1.783v30.479a1.823 1.823 0 0 1-1.732 1.726H75.521a16.633 16.633 0 1 1 0-33.265H83.5V8.146h-7.979A18.7 18.7 0 0 0 56.847 26.82" class="cls-2" data-name="Path 362" transform="translate(-50.729 -1.805)"/>
    </g>
</svg>
