<svg xmlns="http://www.w3.org/2000/svg" width="100" height="100" viewBox="0 0 100 100">
    <defs>
        <style>
            .cls-1{fill:#fff}
        </style>
    </defs>
    <g id="digital">
        <path id="Path_267" d="M100 17.292V11.74l-2.087-.7a12.612 12.612 0 0 0-1.187-2.86l.985-1.971-3.926-3.922-1.97.987a12.709 12.709 0 0 0-2.86-1.185L88.259 0h-5.552l-.695 2.089a12.724 12.724 0 0 0-2.86 1.185l-1.97-.985L73.576 5.9A50.073 50.073 0 0 0 32 3.349 4.826 4.826 0 0 0 27.419 0H4.838A4.845 4.845 0 0 0 0 4.839v12.9a4.845 4.845 0 0 0 4.838 4.841h3.376a49.914 49.914 0 0 0 2.544 58.387 8.064 8.064 0 0 0-5.788 6.3A6.452 6.452 0 0 0 6.451 100h22.581a6.427 6.427 0 0 0 5.137-2.59 49.856 49.856 0 0 0 44.863-6.71v2.852a6.452 6.452 0 0 0 12.9 0V90.3a3.032 3.032 0 0 1 1.153-2.474 12.937 12.937 0 0 0 5.3-10.41 12.785 12.785 0 0 0-2.487-7.6 50.014 50.014 0 0 0-1.8-43.4l3.609-3.609-.985-1.97a12.833 12.833 0 0 0 1.187-2.86zM73.55 9.613a12.761 12.761 0 0 0-.494 1.433l-2.089.695v.091a43.6 43.6 0 0 0-38.71-1.611v-3.5A46.673 46.673 0 0 1 73.55 9.613zm3.632 17.131l1.97-.985a12.709 12.709 0 0 0 2.86 1.185l.7 2.089h1.714a40.243 40.243 0 0 1 3.133 35.644 12.739 12.739 0 0 0-2.291-.16 13.051 13.051 0 0 0-12.68 12.426 12.866 12.866 0 0 0 1.1 5.647A39.857 39.857 0 0 1 50 90.322a40.274 40.274 0 0 1-20.393-5.542 8.071 8.071 0 0 0-5.656-4.011 40.3 40.3 0 0 1-8.624-51.347l.8 1.6 4.223-8.445h7.067a4.845 4.845 0 0 0 4.839-4.839V13.8a40.232 40.232 0 0 1 38.71 1.774v1.716l2.087.7a12.657 12.657 0 0 0 1.187 2.86l-.985 1.97zm-73.956-9V4.839a1.615 1.615 0 0 1 1.612-1.613h22.581a1.615 1.615 0 0 1 1.613 1.613v12.9a1.615 1.615 0 0 1-1.613 1.613h-9.062l-2.229 4.458-2.228-4.455H4.838a1.615 1.615 0 0 1-1.613-1.613zM12 22.77l1.647 3.292a43.465 43.465 0 0 0 6.021 55.164 8.02 8.02 0 0 0-1.926 1.063 8.041 8.041 0 0 0-2.816-1.351A46.7 46.7 0 0 1 12 22.769zm17.032 74H6.451a3.226 3.226 0 1 1 0-6.452h1.613V88.71a4.845 4.845 0 0 1 4.836-4.839 4.767 4.767 0 0 1 3.624 1.674l1.214 1.388 1.214-1.388a4.767 4.767 0 0 1 3.624-1.674 4.845 4.845 0 0 1 4.839 4.839v1.613h1.613a3.226 3.226 0 1 1 0 6.452zm6.368-2.354a5.653 5.653 0 0 0-.545-3.6A43.6 43.6 0 0 0 50 93.548a43.069 43.069 0 0 0 25.35-8.179 12.869 12.869 0 0 0 2.323 2.293A46.522 46.522 0 0 1 35.4 94.416zm50.087 2.358a3.229 3.229 0 0 1-3.226-3.226h6.452a3.229 3.229 0 0 1-3.229 3.226zm5.7-11.55a6.262 6.262 0 0 0-2.478 5.076v.02H87.1v-8.062h-3.229v8.064h-1.613V90.3a6.338 6.338 0 0 0-2.516-5.1 9.677 9.677 0 0 1-3.929-8.134 9.783 9.783 0 0 1 9.507-9.317h.165a9.668 9.668 0 0 1 5.7 17.482zm2.279-17.94a12.805 12.805 0 0 0-2.805-1.692 43.565 43.565 0 0 0-2.489-36.56h.089l.695-2.089a12.547 12.547 0 0 0 1.433-.494 46.7 46.7 0 0 1 3.078 40.834zm3.308-52.318l-1.619.539-.184.918a9.58 9.58 0 0 1-1.43 3.449l-.52.778.765 1.529-.637.639-1.527-.766-.78.52A9.569 9.569 0 0 1 87.392 24l-.918.183-.54 1.622h-.9l-.54-1.621-.919-.184a9.553 9.553 0 0 1-3.449-1.43l-.78-.52-1.527.766-.637-.639.765-1.529-.52-.778A9.541 9.541 0 0 1 76 16.424l-.184-.918-1.619-.54v-.9l1.619-.539.184-.918a9.557 9.557 0 0 1 1.43-3.449l.52-.778-.765-1.53.637-.637 1.527.766.78-.52a9.569 9.569 0 0 1 3.449-1.43l.918-.183.54-1.622h.9l.54 1.621.918.183a9.553 9.553 0 0 1 3.449 1.43l.78.52 1.527-.766.637.637-.767 1.529.52.778a9.518 9.518 0 0 1 1.43 3.449l.184.918 1.619.54zm0 0" class="cls-1" data-name="Path 267"/>
        <path id="Path_268" d="M398.452 40a6.452 6.452 0 1 0 6.452 6.452A6.458 6.458 0 0 0 398.452 40zm0 9.677a3.226 3.226 0 1 1 3.226-3.226 3.229 3.229 0 0 1-3.226 3.226zm0 0" class="cls-1" data-name="Path 268" transform="translate(-312.968 -31.936)"/>
        <path id="Path_269" d="M416 376h3.226v3.226H416zm0 0" class="cls-1" data-name="Path 269" transform="translate(-332.13 -300.194)"/>
        <path id="Path_270" d="M32 32h19.355v3.226H32zm0 0" class="cls-1" data-name="Path 270" transform="translate(-25.549 -25.549)"/>
        <path id="Path_271" d="M112 64h3.226v3.226H112zm0 0" class="cls-1" data-name="Path 271" transform="translate(-89.42 -51.097)"/>
        <path id="Path_272" d="M32 64h12.9v3.226H32zm0 0" class="cls-1" data-name="Path 272" transform="translate(-25.549 -51.097)"/>
        <path id="Path_273" d="M185.871 104h-29.032a4.845 4.845 0 0 0-4.839 4.839v51.613a4.845 4.845 0 0 0 4.839 4.839h29.032a4.845 4.845 0 0 0 4.839-4.839v-51.613a4.845 4.845 0 0 0-4.839-4.839zm-29.032 3.226h29.032a1.615 1.615 0 0 1 1.613 1.613v4.839h-32.258v-4.839a1.615 1.615 0 0 1 1.613-1.613zm30.645 9.677v32.258h-32.258V116.9zm-1.613 45.161h-29.032a1.615 1.615 0 0 1-1.613-1.613v-8.065h32.258v8.065a1.615 1.615 0 0 1-1.613 1.613zm0 0" class="cls-1" data-name="Path 273" transform="translate(-121.355 -83.032)"/>
        <path id="Path_274" d="M216 360h12.9v3.226H216zm0 0" class="cls-1" data-name="Path 274" transform="translate(-172.452 -287.419)"/>
        <path id="Path_275" d="M230.2 210.519l-14.2-9.464v18.93zm-10.973-3.438l5.156 3.438-5.156 3.438zm0 0" class="cls-1" data-name="Path 275" transform="translate(-172.452 -160.52)"/>
    </g>
</svg>
