<svg xmlns="http://www.w3.org/2000/svg" width="40" height="40" viewBox="0 0 40 40">
    <defs>
        <style>
            .cls-1{fill:#16c563}
        </style>
    </defs>
    <g id="digital-marketing" transform="translate(0 -.002)">
        <g id="Group_91" data-name="Group 91" transform="translate(13.611 12.438)">
            <g id="Group_90" data-name="Group 90">
                <path id="Path_325" d="M175.553 159.409a.781.781 0 1 0 .229.552.787.787 0 0 0-.229-.552z" class="cls-1" data-name="Path 325" transform="translate(-174.219 -159.18)"/>
            </g>
        </g>
        <g id="Group_93" data-name="Group 93" transform="translate(0 5.568)">
            <g id="Group_92" data-name="Group 92">
                <path id="Path_326" d="M31.921 88.756L26.363 83.2a4.427 4.427 0 0 0-6.163-6.164l-5.557-5.557a.781.781 0 0 0-1.271.246L5.788 89.539l-4.115 4.115a5.712 5.712 0 1 0 8.079 8.079l.668-.668 4.391 4.391a.781.781 0 0 0 1.1 0l3-3a.781.781 0 0 0 0-1.1l-4.124-4.124 16.883-7.2a.781.781 0 0 0 .246-1.271zm-9.191-10.95a2.864 2.864 0 0 1 2.5 4.261l-3.9-3.9a2.848 2.848 0 0 1 1.4-.361zM8.647 100.627a4.15 4.15 0 1 1-5.869-5.869l3.67-3.67.112.112 5.757 5.757zm8.613 1.274l-1.9 1.9-3.838-3.838 1.9-1.9zm9.68-11.553a.67.67 0 0 0-.044-.049L17 80.4a.781.781 0 0 0-1.1 1.1l9.5 9.5-11.8 5.034L7.373 89.8l6.984-16.4L30 89.044z" class="cls-1" data-name="Path 326" transform="translate(0 -71.25)"/>
            </g>
        </g>
        <g id="Group_95" data-name="Group 95" transform="translate(28.997 5.106)">
            <g id="Group_94" data-name="Group 94">
                <path id="Path_327" d="M374.6 65.56a.781.781 0 0 0-1.1 0l-2.1 2.1a.781.781 0 1 0 1.1 1.1l2.1-2.1a.781.781 0 0 0 0-1.1z" class="cls-1" data-name="Path 327" transform="translate(-371.165 -65.331)"/>
            </g>
        </g>
        <g id="Group_97" data-name="Group 97" transform="translate(27.08 9.12)">
            <g id="Group_96" data-name="Group 96">
                <path id="Path_328" d="M347.952 116.939a.781.781 0 1 0 .229.552.786.786 0 0 0-.229-.552z" class="cls-1" data-name="Path 328" transform="translate(-346.618 -116.71)"/>
            </g>
        </g>
        <g id="Group_99" data-name="Group 99" transform="translate(22.762 2.235)">
            <g id="Group_98" data-name="Group 98">
                <path id="Path_329" d="M292.13 28.58a.781.781 0 0 0-.781.781v2.871a.781.781 0 0 0 1.563 0v-2.871a.781.781 0 0 0-.782-.781z" class="cls-1" data-name="Path 329" transform="translate(-291.349 -28.58)"/>
            </g>
        </g>
        <g id="Group_101" data-name="Group 101" transform="translate(30.983 13.315)">
            <g id="Group_100" data-name="Group 100">
                <path id="Path_330" d="M400.331 170.412h-2.967a.781.781 0 1 0 0 1.563h2.967a.781.781 0 0 0 0-1.563z" class="cls-1" data-name="Path 330" transform="translate(-396.582 -170.412)"/>
            </g>
        </g>
        <g id="Group_103" data-name="Group 103" transform="translate(31.267 31.153)">
            <g id="Group_102" data-name="Group 102">
                <path id="Path_331" d="M402.559 398.734a2.344 2.344 0 1 0 2.344 2.344 2.346 2.346 0 0 0-2.344-2.344zm0 3.125a.781.781 0 1 1 .781-.781.782.782 0 0 1-.781.781z" class="cls-1" data-name="Path 331" transform="translate(-400.215 -398.734)"/>
            </g>
        </g>
        <g id="Group_105" data-name="Group 105" transform="translate(27.221 26.992)">
            <g id="Group_104" data-name="Group 104">
                <path id="Path_332" d="M360.954 353.128l-.843-.761q.015-.2.015-.395t-.015-.395l.843-.761a.781.781 0 0 0 .153-.971l-1.3-2.253a.781.781 0 0 0-.916-.352l-1.078.348a5.294 5.294 0 0 0-.684-.4l-.238-1.109a.781.781 0 0 0-.764-.618h-2.6a.781.781 0 0 0-.764.618l-.238 1.109a5.285 5.285 0 0 0-.684.4l-1.078-.348a.781.781 0 0 0-.916.352l-1.3 2.253a.781.781 0 0 0 .153.971l.843.761q-.015.2-.015.395t.015.395l-.843.761a.781.781 0 0 0-.153.971l1.3 2.253a.781.781 0 0 0 .916.352l1.078-.349a5.3 5.3 0 0 0 .684.4l.238 1.109a.781.781 0 0 0 .764.618h2.6a.781.781 0 0 0 .764-.618l.238-1.109a5.283 5.283 0 0 0 .684-.4l1.078.349a.781.781 0 0 0 .916-.352l1.3-2.253a.782.782 0 0 0-.153-.971zm-2.187 1.9l-.861-.278a.782.782 0 0 0-.732.136 3.729 3.729 0 0 1-1.01.584.781.781 0 0 0-.484.566l-.189.884h-1.339l-.189-.884a.781.781 0 0 0-.484-.566 3.729 3.729 0 0 1-1.01-.584.781.781 0 0 0-.732-.136l-.861.278-.671-1.159.671-.606a.781.781 0 0 0 .248-.7 3.778 3.778 0 0 1 0-1.169.781.781 0 0 0-.248-.7l-.671-.606.671-1.159.861.278a.781.781 0 0 0 .732-.136 3.733 3.733 0 0 1 1.01-.584.781.781 0 0 0 .483-.565l.189-.884h1.339l.189.884a.781.781 0 0 0 .483.565 3.732 3.732 0 0 1 1.01.584.782.782 0 0 0 .732.136l.861-.278.671 1.159-.671.606a.782.782 0 0 0-.248.7 3.775 3.775 0 0 1 0 1.169.782.782 0 0 0 .248.7l.671.606z" class="cls-1" data-name="Path 332" transform="translate(-348.433 -345.467)"/>
            </g>
        </g>
        <g id="Group_107" data-name="Group 107" transform="translate(33.908 .002)">
            <g id="Group_106" data-name="Group 106">
                <path id="Path_333" d="M440.047 5.844L437.782.479a.781.781 0 0 0-1.44 0l-2.265 5.365a.781.781 0 1 0 1.44.608l.283-.671h2.523l.283.671a.781.781 0 0 0 1.44-.608zm-3.587-1.626l.6-1.426.6 1.426z" class="cls-1" data-name="Path 333" transform="translate(-434.016 -.002)"/>
            </g>
        </g>
        <g id="Group_109" data-name="Group 109" transform="translate(0 .002)">
            <g id="Group_108" data-name="Group 108">
                <path id="Path_334" d="M8.419 0H1.894A1.9 1.9 0 0 0 0 1.9v5.74a1.9 1.9 0 0 0 1.894 1.894h6.525a1.9 1.9 0 0 0 1.894-1.894V1.9A1.9 1.9 0 0 0 8.419 0zm.331 7.64a.331.331 0 0 1-.331.331H1.894a.332.332 0 0 1-.331-.331V1.9a.331.331 0 0 1 .331-.331h6.525a.332.332 0 0 1 .331.331v5.74z" class="cls-1" data-name="Path 334" transform="translate(0 -.002)"/>
            </g>
        </g>
        <g id="Group_111" data-name="Group 111" transform="translate(2.849 2.415)">
            <g id="Group_110" data-name="Group 110">
                <path id="Path_335" d="M40.156 31.8l-1.19-.687a1.664 1.664 0 0 0-2.5 1.441v1.374a1.66 1.66 0 0 0 2.5 1.441l1.19-.687a1.664 1.664 0 0 0 0-2.882zm-.781 1.528l-1.19.687a.1.1 0 0 1-.152-.088v-1.375a.093.093 0 0 1 .051-.088.1.1 0 0 1 .051-.015.1.1 0 0 1 .05.015l1.19.687a.1.1 0 0 1 0 .175z" class="cls-1" data-name="Path 335" transform="translate(-36.471 -30.886)"/>
            </g>
        </g>
        <g id="Group_113" data-name="Group 113" transform="translate(3.815 17.031)">
            <g id="Group_112" data-name="Group 112">
                <path id="Path_336" d="M50.178 217.969h-.564a.781.781 0 0 0 0 1.563h.564a.781.781 0 0 0 0-1.563z" class="cls-1" data-name="Path 336" transform="translate(-48.833 -217.969)"/>
            </g>
        </g>
        <g id="Group_115" data-name="Group 115" transform="translate(2.189 14.865)">
            <g id="Group_114" data-name="Group 114">
                <path id="Path_337" d="M28.806 190.25a.781.781 0 0 0-.781.781v.5a.781.781 0 0 0 1.563 0v-.5a.781.781 0 0 0-.782-.781z" class="cls-1" data-name="Path 337" transform="translate(-28.025 -190.25)"/>
            </g>
        </g>
        <g id="Group_117" data-name="Group 117" transform="translate(0 17.031)">
            <g id="Group_116" data-name="Group 116">
                <path id="Path_338" d="M1.278 217.969h-.5a.781.781 0 0 0 0 1.563h.5a.781.781 0 0 0 0-1.563z" class="cls-1" data-name="Path 338" transform="translate(0 -217.969)"/>
            </g>
        </g>
        <g id="Group_119" data-name="Group 119" transform="translate(2.189 18.674)">
            <g id="Group_118" data-name="Group 118">
                <path id="Path_339" d="M28.806 239a.781.781 0 0 0-.781.781v.57a.781.781 0 0 0 1.563 0v-.57a.781.781 0 0 0-.782-.781z" class="cls-1" data-name="Path 339" transform="translate(-28.025 -239)"/>
            </g>
        </g>
    </g>
</svg>
