<svg xmlns="http://www.w3.org/2000/svg" width="253.936" height="50" viewBox="0 0 253.936 50">
    <defs>
        <style>
            .cls-1{fill:#b6d3c4}
        </style>
    </defs>
    <g id="Dropbox_logo_2017">
        <path id="Path_358" d="M29.457 9.4l-14.728 9.4 14.728 9.4-14.728 9.4L0 28.136l14.728-9.4L0 9.4 14.728 0zM14.652 40.6l14.728-9.4 14.728 9.4L29.38 50zm14.8-12.468l14.728-9.4L29.457 9.4 44.109 0l14.728 9.4-14.728 9.4 14.728 9.4-14.728 9.4z" class="cls-1" data-name="Path 358"/>
        <path id="Path_359" d="M277.2 29.689h11.91c7.593 0 13.865 4.393 13.865 14.424v2.107c0 10.107-5.866 14.652-13.636 14.652H277.2zm6.653 5.663v19.832h5.1c4.317 0 7.212-2.819 7.212-9.091v-1.651c0-6.272-3.047-9.091-7.44-9.091zm22.651.3h5.333l.863 5.866c1.016-3.987 3.606-6.12 8.3-6.12h1.651v6.729h-2.743c-5.409 0-6.729 1.879-6.729 7.212v11.6h-6.577V35.656zm17.471 13.158v-.71c0-8.456 5.409-13.078 12.773-13.078 7.517 0 12.773 4.622 12.773 13.078v.711c0 8.3-5.1 12.773-12.773 12.773-8.148-.077-12.773-4.445-12.773-12.774zm18.817-.076V48.1c0-4.7-2.362-7.517-6.12-7.517-3.682 0-6.12 2.59-6.12 7.517v.635c0 4.545 2.362 7.136 6.12 7.136 3.758-.078 6.12-2.592 6.12-7.137zm10.183-13.078h5.485l.635 4.774a8.512 8.512 0 0 1 8.3-5.409c6.425 0 10.665 4.622 10.665 13.179v.711c0 8.3-4.7 12.7-10.665 12.7-3.987 0-6.729-1.8-8.075-4.7v12.773h-6.42l.076-34.027zm18.41 13.078v-.559c0-5.028-2.59-7.517-6.044-7.517-3.682 0-6.12 2.819-6.12 7.517v.482c0 4.469 2.362 7.288 6.044 7.288 3.784-.076 6.12-2.488 6.12-7.211zm16.4 7.542l-.555 4.624h-5.637V27.2h6.425v12.925c1.422-3.3 4.241-5.1 8.228-5.1 6.044.076 10.513 4.241 10.513 12.621v.787c0 8.38-4.241 13.179-10.665 13.179-4.242-.105-6.984-2.061-8.305-5.336zM400 48.429v-.635c0-4.622-2.514-7.212-6.044-7.212-3.606 0-6.12 2.895-6.12 7.288v.559c0 4.7 2.438 7.44 6.044 7.44 3.863 0 6.12-2.412 6.12-7.44zm9.573.381v-.71c0-8.456 5.409-13.078 12.773-13.078 7.516 0 12.773 4.622 12.773 13.078v.711c0 8.3-5.18 12.773-12.773 12.773-8.146-.077-12.769-4.445-12.769-12.774zm18.867-.076V48.1c0-4.7-2.362-7.517-6.12-7.517-3.682 0-6.12 2.59-6.12 7.517v.635c0 4.545 2.362 7.136 6.12 7.136 3.788-.078 6.124-2.592 6.124-7.137zm15.287-.94l-8.862-12.138h7.593l5.1 7.593 5.18-7.593h7.517l-8.989 12.062 9.479 13.182H453.3l-5.79-8.38-5.637 8.38h-7.77z" class="cls-1" data-name="Path 359" transform="translate(-206.809 -20.293)"/>
    </g>
</svg>
