<svg xmlns="http://www.w3.org/2000/svg" width="30" height="30" viewBox="0 0 30 30">
    <defs>
        <style>
            .cls-1{fill:#fff;stroke:#707070}.cls-2{clip-path:url(#clip-path)}.cls-3{fill:#475993}
        </style>
        <clipPath id="clip-path">
            <rect id="Rectangle_1146" width="30" height="30" class="cls-1" data-name="Rectangle 1146" rx="7" transform="translate(140 3952)"/>
        </clipPath>
    </defs>
    <g id="Mask_Group_3" class="cls-2" data-name="Mask Group 3" transform="translate(-140 -3952)">
        <path id="facebook" d="M25.957 0H4.043A4.043 4.043 0 0 0 0 4.043v21.914A4.043 4.043 0 0 0 4.043 30h10.808l.018-10.72h-2.785a.657.657 0 0 1-.657-.655l-.013-3.456a.657.657 0 0 1 .657-.66h2.78v-3.338c0-3.875 2.367-5.985 5.823-5.985h2.836a.657.657 0 0 1 .657.657v2.914a.657.657 0 0 1-.657.657h-1.74c-1.88 0-2.244.893-2.244 2.2v2.896h4.131a.657.657 0 0 1 .653.735L23.9 18.7a.657.657 0 0 1-.653.58h-3.7L19.526 30h6.431A4.042 4.042 0 0 0 30 25.958V4.043A4.043 4.043 0 0 0 25.957 0z" class="cls-3" transform="translate(140 3952)"/>
    </g>
</svg>
