<svg xmlns="http://www.w3.org/2000/svg" width="151.893" height="50" viewBox="0 0 151.893 50">
    <defs>
        <style>
            .cls-1{fill:#b6d3c4}
        </style>
    </defs>
    <g id="Google_2015_logo" transform="translate(-.36 -.47)">
        <path id="Path_352" d="M96.318 37.494A12.534 12.534 0 1 1 83.784 25a12.34 12.34 0 0 1 12.534 12.494zm-5.487 0c0-4.5-3.262-7.571-7.047-7.571S76.737 33 76.737 37.494a7.065 7.065 0 1 0 14.094 0z" class="cls-1" data-name="Path 352" transform="translate(-30.956 -10.712)"/>
        <path id="Path_353" d="M144.318 37.494A12.534 12.534 0 1 1 131.784 25a12.34 12.34 0 0 1 12.534 12.494zm-5.487 0c0-4.5-3.262-7.571-7.047-7.571s-7.047 3.076-7.047 7.571a7.065 7.065 0 1 0 14.094 0z" class="cls-1" data-name="Path 353" transform="translate(-51.917 -10.712)"/>
        <path id="Path_354" d="M191.182 25.755v22.431c0 9.227-5.442 13-11.875 13a11.9 11.9 0 0 1-11.075-7.363l4.777-1.989a6.9 6.9 0 0 0 6.292 4.433c4.118 0 6.67-2.541 6.67-7.323v-1.8h-.192a8.507 8.507 0 0 1-6.58 2.839 12.368 12.368 0 0 1-11.97-12.444C167.23 30.487 172.953 25 179.2 25a8.658 8.658 0 0 1 6.58 2.794h.192V25.76h5.211zm-4.822 11.784c0-4.4-2.935-7.616-6.67-7.616-3.785 0-6.957 3.217-6.957 7.616 0 4.354 3.171 7.526 6.957 7.526 3.735 0 6.67-3.171 6.67-7.526z" class="cls-1" data-name="Path 354" transform="translate(-72.869 -10.712)"/>
        <path id="Path_355" d="M220.852 3v36.616H215.5V3z" class="cls-1" data-name="Path 355" transform="translate(-93.948 -1.105)"/>
        <path id="Path_356" d="M247.64 41.6l4.259 2.839a12.436 12.436 0 0 1-10.41 5.537 12.225 12.225 0 0 1-12.4-12.494c0-7.43 5.346-12.494 11.785-12.494 6.484 0 9.655 5.16 10.692 7.948l.569 1.42-16.7 6.918a6.359 6.359 0 0 0 6.056 3.785 7.131 7.131 0 0 0 6.149-3.459zm-13.108-4.5l11.168-4.629a4.837 4.837 0 0 0-4.636-2.648 6.853 6.853 0 0 0-6.532 7.284z" class="cls-1" data-name="Path 356" transform="translate(-99.883 -10.707)"/>
        <path id="Path_357" d="M20.037 23.532v-5.3H37.9a17.564 17.564 0 0 1 .265 3.2c0 3.977-1.087 8.895-4.591 12.4-3.408 3.549-7.763 5.442-13.531 5.442A19.673 19.673 0 0 1 .36 19.871 19.673 19.673 0 0 1 20.042.47a18.486 18.486 0 0 1 13.295 5.346L29.6 9.556a13.512 13.512 0 0 0-9.559-3.785 13.917 13.917 0 0 0-13.914 14.1 13.917 13.917 0 0 0 13.914 14.1 12.979 12.979 0 0 0 9.8-3.881 10.987 10.987 0 0 0 2.873-6.563z" class="cls-1" data-name="Path 357"/>
    </g>
</svg>
