<svg xmlns="http://www.w3.org/2000/svg" id="innovation" width="100" height="100" viewBox="0 0 100 100">
    <defs>
        <style>
            .cls-1{fill:#16c563}
        </style>
    </defs>
    <path id="Path_379" d="M254.452 382.452v-3.226a3.229 3.229 0 0 1-3.226-3.226H248a6.458 6.458 0 0 0 6.452 6.452zm0 0" class="cls-1" data-name="Path 379" transform="translate(-198 -300.193)"/>
    <path id="Path_380" d="M176 392v3.226a3.229 3.229 0 0 1 3.226 3.226h3.226A6.458 6.458 0 0 0 176 392zm0 0" class="cls-1" data-name="Path 380" transform="translate(-140.516 -312.968)"/>
    <path id="Path_381" d="M298.361 184.032l1.953 2.93a14.978 14.978 0 0 0-.859 2.076l-3.455.692v8.024l3.455.691a15.175 15.175 0 0 0 .859 2.076l-1.953 2.93 5.671 5.674 2.93-1.955a15.08 15.08 0 0 0 2.078.859l.692 3.453h8.02l.692-3.455a15.278 15.278 0 0 0 2.078-.859l2.93 1.955 5.671-5.674-1.953-2.93a14.981 14.981 0 0 0 .859-2.076l3.453-.691v-8.022l-3.455-.691a15.172 15.172 0 0 0-.859-2.076l1.953-2.93-5.671-5.674-2.93 1.955a14.806 14.806 0 0 0-2.078-.859l-.691-3.455h-8.02l-.692 3.455a15.08 15.08 0 0 0-2.078.859l-2.93-1.955zm8.471.071l.874-.519a11.9 11.9 0 0 1 3.121-1.294l.986-.248.562-2.816h2.731l.564 2.816.986.248a11.794 11.794 0 0 1 3.121 1.294l.874.519 2.389-1.592 1.932 1.93-1.593 2.39.521.874a11.793 11.793 0 0 1 1.292 3.121l.25.986 2.816.562v2.731l-2.816.562-.25.986a11.751 11.751 0 0 1-1.292 3.121l-.521.874 1.593 2.39-1.932 1.93-2.39-1.595-.874.522a11.842 11.842 0 0 1-3.12 1.294l-.986.248-.562 2.818h-2.731l-.564-2.816-.986-.248a11.742 11.742 0 0 1-3.119-1.294l-.874-.522-2.39 1.595-1.932-1.93 1.593-2.39-.521-.874a11.794 11.794 0 0 1-1.292-3.121l-.25-.986-2.816-.562v-2.731l2.816-.562.25-.986a11.753 11.753 0 0 1 1.292-3.121l.521-.874-1.593-2.39 1.932-1.93zm0 0" class="cls-1" data-name="Path 381" transform="translate(-236.323 -140.516)"/>
    <path id="Path_382" d="M352.065 240.129a8.065 8.065 0 1 0-8.065-8.064 8.074 8.074 0 0 0 8.065 8.064zm0-12.9a4.839 4.839 0 1 1-4.839 4.839 4.845 4.845 0 0 1 4.839-4.842zm0 0" class="cls-1" data-name="Path 382" transform="translate(-274.645 -178.839)"/>
    <path id="Path_383" d="M216 0h3.226v9.677H216zm0 0" class="cls-1" data-name="Path 383" transform="translate(-172.452)"/>
    <path id="Path_384" d="M155.383 10.363l2.98-1.234 3.7 8.941-2.98 1.234zm0 0" class="cls-1" data-name="Path 384" transform="translate(-124.056 -7.288)"/>
    <path id="Path_385" d="M105.2 43.48l2.281-2.281 6.843 6.843-2.282 2.281zm0 0" class="cls-1" data-name="Path 385" transform="translate(-83.993 -32.893)"/>
    <path id="Path_386" d="M297.539 48.046l6.842-6.843 2.282 2.282-6.843 6.843zm0 0" class="cls-1" data-name="Path 386" transform="translate(-237.551 -32.896)"/>
    <path id="Path_387" d="M259.465 18.061l3.7-8.94 2.98 1.235-3.7 8.94zm0 0" class="cls-1" data-name="Path 387" transform="translate(-207.153 -7.282)"/>
    <path id="Path_388" d="M0 384h3.226v3.226H0zm0 0" class="cls-1" data-name="Path 388" transform="translate(0 -306.581)"/>
    <path id="Path_389" d="M32 384h3.226v3.226H32zm0 0" class="cls-1" data-name="Path 389" transform="translate(-25.548 -306.581)"/>
    <path id="Path_390" d="M0 320h3.226v3.226H0zm0 0" class="cls-1" data-name="Path 390" transform="translate(0 -255.484)"/>
    <path id="Path_391" d="M32 320h3.226v3.226H32zm0 0" class="cls-1" data-name="Path 391" transform="translate(-25.548 -255.484)"/>
    <path id="Path_392" d="M64 320h3.226v3.226H64zm0 0" class="cls-1" data-name="Path 392" transform="translate(-51.097 -255.484)"/>
    <path id="Path_393" d="M96 320h3.226v3.226H96zm0 0" class="cls-1" data-name="Path 393" transform="translate(-76.645 -255.484)"/>
    <path id="Path_394" d="M344 144h3.226v3.226H344zm0 0" class="cls-1" data-name="Path 394" transform="translate(-274.645 -114.968)"/>
    <path id="Path_395" d="M376 144h3.226v3.226H376zm0 0" class="cls-1" data-name="Path 395" transform="translate(-300.193 -114.968)"/>
    <path id="Path_396" d="M408 144h3.226v3.226H408zm0 0" class="cls-1" data-name="Path 396" transform="translate(-325.742 -114.968)"/>
    <path id="Path_397" d="M100 56.593A50.036 50.036 0 0 0 62.845 8.258l-.827 3.119a46.794 46.794 0 0 1-3.484 91.223 7.984 7.984 0 0 0 1.144-4.072c0-.055-.009-.108-.009-.161a8.078 8.078 0 0 0 6.461-7.9 7.982 7.982 0 0 0-1.636-4.816 8.057 8.057 0 0 0-4.827-12.765c0-.054.011-.106.011-.161a8.07 8.07 0 0 0-4.839-7.381V55.6a19.349 19.349 0 1 0-28.954-18.5l3.213.29A16.129 16.129 0 1 1 52.491 53.2l-.319.165H50V43.69h1.613a4.839 4.839 0 1 0-4.839-4.839v1.613h-3.225v-1.613a4.839 4.839 0 1 0-4.839 4.839h1.613v9.677h-2.171l-.319-.165a16.218 16.218 0 0 1-8.523-11.419l-.243-1.319h-6.486V24.335H12.9v16.129H9.678V11.432H0V43.69h1.718A49.475 49.475 0 0 0 .659 64.658H0v3.226h29.033v-3.226H3.934A46.3 46.3 0 0 1 5.06 43.69h21.371a19.507 19.507 0 0 0 9.053 11.91v9.744a8.07 8.07 0 0 0-4.839 7.381c0 .055.009.108.011.161a8.085 8.085 0 0 0-5.779 4.677H0v3.226h24.194a8.052 8.052 0 0 0 .679 3.226H12.9v3.226h11.977a7.983 7.983 0 0 0-.684 3.226 8.078 8.078 0 0 0 6.461 7.9c0 .054-.009.106-.009.161 0 .231.048.447.068.673A47.1 47.1 0 0 1 15.7 88.393l-2.366 2.193a50.293 50.293 0 0 0 18.955 12.768 7.989 7.989 0 0 0 12.874-.035 8.037 8.037 0 0 0 6.452 3.275c.2 0 .384-.045.577-.058A49.767 49.767 0 0 0 100 56.593zM50 38.851a1.613 1.613 0 1 1 1.613 1.613H50zM6.452 40.464H3.226V14.658h3.226zm9.677-12.9h3.226v12.9h-3.226zm35.484 32.255H38.71v-3.226h12.9zM38.71 40.464a1.613 1.613 0 1 1 1.613-1.613v1.613zm4.839 3.226h3.226v9.677h-3.226zM38.71 63.045h12.9v1.613h-12.9zm6.49 4.838c-.013.018-.029.032-.042.05l-.042-.05zm-6.49 35.484a4.845 4.845 0 0 1-4.839-4.839c0-.058.02-.113.021-.171a8.078 8.078 0 0 0 4.414-2.56l-2.419-2.133a4.839 4.839 0 1 1-3.629-8.04V82.4a7.968 7.968 0 0 0-3.989 1.1 4.808 4.808 0 0 1 3.107-7.461 8.068 8.068 0 0 0 3.3 3.669l1.613-2.79a4.84 4.84 0 1 1 7.258-4.194v25.805a4.845 4.845 0 0 1-4.839 4.839zm8.065-4.839V72.722a4.839 4.839 0 1 1 7.258 4.194l1.614 2.79a8.061 8.061 0 0 0 3.3-3.669 4.808 4.808 0 0 1 3.107 7.463 7.968 7.968 0 0 0-3.989-1.1v3.226a4.839 4.839 0 1 1-3.629 8.039l-2.42 2.135a8.079 8.079 0 0 0 4.414 2.56c0 .06.021.114.021.172a4.831 4.831 0 0 1-4.194 4.774c-.234.011-.465.032-.7.04v.02a4.841 4.841 0 0 1-4.785-4.834zm0 0" class="cls-1" data-name="Path 397" transform="translate(0 -6.593)"/>
    <path id="Path_398" d="M32 256h22.581v3.226H32zm0 0" class="cls-1" data-name="Path 398" transform="translate(-25.548 -204.387)"/>
    <path id="Path_399" d="M32 224h22.581v3.226H32zm0 0" class="cls-1" data-name="Path 399" transform="translate(-25.548 -178.839)"/>
</svg>
