<svg xmlns="http://www.w3.org/2000/svg" width="185.01" height="50" viewBox="0 0 185.01 50">
    <defs>
        <style>
            .cls-1{fill:#b6d3c4}
        </style>
    </defs>
    <path id="Netflix_2015_logo" d="M25.439 46.777c-2.783.489-5.615.635-8.545 1.026L7.959 21.631v27.295C5.176 49.219 2.637 49.609 0 50V0h7.422l10.156 28.37V0h7.861v46.777zM40.82 18.311c3.028 0 7.666-.147 10.449-.147v7.812c-3.467 0-7.519 0-10.449.147v11.621c4.59-.293 9.18-.684 13.818-.83v7.519l-21.63 1.709V0h21.631v7.812H40.82v10.5zm42.871-10.5h-8.105V43.75c-2.637 0-5.274 0-7.812.1V7.813h-8.106V0h24.024v7.813zm12.7 9.961h10.689v7.812H96.387v17.727H88.72V0h21.827v7.812h-14.16zm26.856 18.7c4.443.1 8.935.44 13.281.683v7.715c-6.982-.44-13.965-.879-21.094-1.026V0h7.812zm19.873 8.936c2.49.147 5.127.293 7.666.586V0h-7.666zM185.01 0l-9.91 23.779L185.01 50c-2.93-.391-5.86-.928-8.789-1.416l-5.615-14.453-5.712 13.281c-2.833-.489-5.567-.635-8.4-1.026l10.058-22.9L157.471 0h8.4L171 13.135 176.465 0h8.545z" class="cls-1"/>
</svg>
