<svg xmlns="http://www.w3.org/2000/svg" width="40.003" height="40" viewBox="0 0 40.003 40">
    <defs>
        <style>
            .cls-1{fill:#16c563}
        </style>
    </defs>
    <g id="payment-method" transform="translate(0 -.023)">
        <g id="Group_121" data-name="Group 121" transform="translate(11.935 30.013)">
            <g id="Group_120" data-name="Group 120">
                <path id="Path_340" d="M154.3 384.486a.815.815 0 0 0-.045-.147.792.792 0 0 0-.072-.134.759.759 0 0 0-.216-.216.771.771 0 0 0-.135-.072.731.731 0 0 0-.146-.045.77.77 0 0 0-.3 0 .754.754 0 0 0-.147.045.793.793 0 0 0-.134.072.759.759 0 0 0-.216.216.74.74 0 0 0-.072.134.757.757 0 0 0-.045.147.75.75 0 0 0 0 .3.734.734 0 0 0 .045.146.721.721 0 0 0 .072.135.76.76 0 0 0 .216.216.787.787 0 0 0 .134.072.756.756 0 0 0 .147.045.751.751 0 0 0 .3 0 .733.733 0 0 0 .146-.045.772.772 0 0 0 .135-.072.76.76 0 0 0 .216-.216.77.77 0 0 0 .072-.135.789.789 0 0 0 .045-.146.75.75 0 0 0 0-.3z" class="cls-1" data-name="Path 340" transform="translate(-152.75 -383.857)"/>
            </g>
        </g>
        <g id="Group_123" data-name="Group 123" transform="translate(0 24.236)">
            <g id="Group_122" data-name="Group 122">
                <path id="Path_341" d="M35.94 316.568l-.009-.023c-.719-1.683-2.406-2.3-4.4-1.623l-5.443 1.505a3.568 3.568 0 0 0-2.21-2.176l-.021-.007-5.983-2.031a6.171 6.171 0 0 0-4.979-2.291 6.248 6.248 0 0 0-4.88 2.927H.781a.781.781 0 0 0-.781.781v9.851a.781.781 0 0 0 .781.781h4.646a.781.781 0 0 0 .781-.781v-.675h2.179a.781.781 0 0 0 .781-.781v-.225a5.539 5.539 0 0 1 2.854 1.024 47.282 47.282 0 0 0 4.694 2.4l.034.014a7.014 7.014 0 0 0 2.514.474 6.228 6.228 0 0 0 2.589-.554l12.032-4.308c.021-.008.043-.016.063-.026a3.335 3.335 0 0 0 1.992-4.256zM4.645 322.7H1.563v-8.288h3.082zm2.96-1.456h-1.4v-6.832h1.4zm25.718-1.855L21.3 323.694l-.035.014-.031.014a5.064 5.064 0 0 1-3.891.066 45.252 45.252 0 0 1-4.543-2.318 7.033 7.033 0 0 0-3.635-1.236v-6.293a4.825 4.825 0 0 1 3.725-2.456 4.509 4.509 0 0 1 3.825 1.8.781.781 0 0 0 .414.331l6.21 2.108a1.753 1.753 0 0 1 1.275 2.068 1.522 1.522 0 0 1-1.87 1.051l-7-2.218a.781.781 0 0 0-.472 1.49l7.012 2.222.022.007a3.066 3.066 0 0 0 2.345-.273 3.064 3.064 0 0 0 1.466-1.851q.027-.095.048-.19l5.866-1.625c.847-.289 1.959-.394 2.455.747.514 1.334-.817 2.071-1.163 2.236z" class="cls-1" data-name="Path 341" transform="translate(0 -309.922)"/>
            </g>
        </g>
        <g id="Group_125" data-name="Group 125" transform="translate(26.506 9.671)">
            <g id="Group_124" data-name="Group 124">
                <path id="Path_342" d="M340.8 124.127a.759.759 0 0 0-.045-.147.739.739 0 0 0-.072-.134.76.76 0 0 0-.216-.216.794.794 0 0 0-.134-.072.778.778 0 0 0-.452-.045.734.734 0 0 0-.146.045.773.773 0 0 0-.135.072.76.76 0 0 0-.216.216.794.794 0 0 0-.072.134.757.757 0 0 0-.045.147.751.751 0 0 0 0 .3.733.733 0 0 0 .045.146.77.77 0 0 0 .072.135.759.759 0 0 0 .216.216.772.772 0 0 0 .135.072.788.788 0 0 0 .146.045.769.769 0 0 0 .152.016.784.784 0 0 0 .153-.016.826.826 0 0 0 .146-.045.793.793 0 0 0 .134-.072.759.759 0 0 0 .216-.216.721.721 0 0 0 .072-.135.735.735 0 0 0 .045-.146.788.788 0 0 0 0-.3z" class="cls-1" data-name="Path 342" transform="translate(-339.25 -123.498)"/>
            </g>
        </g>
        <g id="Group_127" data-name="Group 127" transform="translate(2.32 .023)">
            <g id="Group_126" data-name="Group 126">
                <path id="Path_343" d="M66.593 2.669h-4.645a.781.781 0 0 0-.781.781v.675h-2.179a.781.781 0 0 0-.781.781v.225a5.54 5.54 0 0 1-2.854-1.024 47.278 47.278 0 0 0-4.694-2.4l-.035-.007a6.647 6.647 0 0 0-5.1.08L42.378 2.9 39.728.252a.781.781 0 0 0-1.1 0l-8.7 8.7a.775.775 0 0 0 0 1.105L44.79 24.925a.844.844 0 0 0 1.105 0l7.943-7.943c.207.018.421.027.643.027a6.248 6.248 0 0 0 4.88-2.927h7.232a.781.781 0 0 0 .781-.781v-9.85a.781.781 0 0 0-.781-.782zm-27.418-.76l1.781 1.781a3.406 3.406 0 0 1-3.562 0zm-5.815 9.376l-1.78-1.78 1.781-1.781a3.407 3.407 0 0 1 0 3.562zm11.983 11.983l-1.78-1.78a3.4 3.4 0 0 1 3.561 0zm2.906-2.906a4.965 4.965 0 0 0-5.812 0l-7.95-7.95a4.965 4.965 0 0 0 0-5.813l1.783-1.783a4.965 4.965 0 0 0 5.813 0l1.69 1.69a3.1 3.1 0 0 0-2.325 1.7 4.453 4.453 0 1 0 5.12 5.513l2.638.9a4.988 4.988 0 0 0 .828 3.96zM43.5 12.68l.021.007 1.562.53a2.891 2.891 0 1 1-3.924-3.3A3.459 3.459 0 0 0 43.5 12.68zm7.66 4.771a3.417 3.417 0 0 1-.5-1.625 6.075 6.075 0 0 0 1.378.746zm7.048-4.461a4.825 4.825 0 0 1-3.725 2.457 5.687 5.687 0 0 1-.815-.057 4.475 4.475 0 0 1-2.899-1.59l-.094-.127a.779.779 0 0 0-.431-.358l-6.212-2.108a1.753 1.753 0 0 1-1.275-2.068 1.522 1.522 0 0 1 1.87-1.048l7 2.218a.781.781 0 0 0 .472-1.49l-5.566-1.762-.049-.049L43.6 4.124l2.477-.887.027-.01h.008l.031-.014a5.064 5.064 0 0 1 3.891-.066 45.258 45.258 0 0 1 4.537 2.317A7.032 7.032 0 0 0 58.206 6.7zm2.96-.47h-1.4V5.688h1.4zm4.646 0h-3.085V4.232h3.083z" class="cls-1" data-name="Path 343" transform="translate(-29.691 -.023)"/>
            </g>
        </g>
    </g>
</svg>
