<svg xmlns="http://www.w3.org/2000/svg" width="100" height="100" viewBox="0 0 100 100">
    <defs>
        <style>
            .cls-1{fill:#16c563}
        </style>
    </defs>
    <g id="presentation">
        <path id="Path_407" d="M145.3 103.519l-2.053-2.053h-3.894v-4.839h-3.226v4.839H132.9v-9.677h-3.226v9.677h-3.226V86.95h-3.226v14.516H120v3.226h21.913l1.963 1.963-8.639 19.005H172.5l-18.632-41zm14.129 1.173h-11.117l5.559-12.231zm-9.926 7.592l2.282-2.284-2.085-2.085h11.2l2.932 6.452h-19.919l2.4-5.279zm-9.258 10.15l2.2-4.839H165.3l2.2 4.839zm0 0" class="cls-1" data-name="Path 407" transform="translate(-95.806 -67.595)"/>
        <path id="Path_408" d="M56.065 264.129A8.065 8.065 0 1 0 48 256.065a8.074 8.074 0 0 0 8.065 8.064zm0-12.9a4.839 4.839 0 1 1-4.839 4.839 4.845 4.845 0 0 1 4.839-4.842zm0 0" class="cls-1" data-name="Path 408" transform="translate(-38.323 -198)"/>
        <path id="Path_409" d="M99.958 48.387a50.174 50.174 0 0 0-14.474-33.6V6.451H72.227L70.616 0h-41.23l-1.612 6.451H14.516v8.339A50.17 50.17 0 0 0 0 50c0 1.345.068 2.689.174 4.02L0 54.055v8.02l3.455.692a15.277 15.277 0 0 0 .859 2.078l-1.955 2.929L3.9 69.311A49.715 49.715 0 0 0 50 100h50V48.387zM83.871 96.774h-3.226V70.967h3.226zm-6.452 0h-3.226V76.1l3.226 8.6zM26.933 73.1l.519.347 5.674-5.671-1.955-2.93c.053-.1.085-.221.135-.328h3.464l-9.464 25.238a46.438 46.438 0 0 1-3.672-2.523zm34.853-8.583l4.234 11.29h-1.5v1.613H33.375l4.839-12.9zm-29.62 16.128h32.35v3.226h-33.56zm35.576-1.613h3.226v17.742h-3.226zm1.722-3.226l-4.234-11.29h4.62l4.234 11.29zM35.484 61.29v-7.235l-3.455-.692a15.277 15.277 0 0 0-.859-2.078l1.955-2.93-5.675-5.672-2.93 1.953a14.979 14.979 0 0 0-2.076-.859l-.691-3.455h-.785V16.129h58.064V61.29zM31.9 3.225h36.2l.8 3.226H31.1zM17.742 9.677h64.516V12.9H17.742zm0 6.467v24.178h-4.011l-.691 3.455a15.175 15.175 0 0 0-2.076.859l-2.932-1.953L3.3 47.412a46.951 46.951 0 0 1 14.442-31.268zM3.226 50c0-.111.008-.223.008-.334l1.079 1.619a15.079 15.079 0 0 0-.859 2.078l-.094.02A48.177 48.177 0 0 1 3.226 50zm0 9.431V56.7l2.816-.564.248-.986a11.741 11.741 0 0 1 1.294-3.12l.522-.874-1.595-2.39 1.93-1.932 2.39 1.593.874-.521a11.793 11.793 0 0 1 3.121-1.292l.986-.25.562-2.816h2.731l.562 2.816.986.25a11.752 11.752 0 0 1 3.121 1.292l.874.521 2.39-1.593 1.93 1.932-1.595 2.39.522.874a11.841 11.841 0 0 1 1.294 3.119l.248.986 2.818.562v2.731l-2.816.564-.248.986A11.741 11.741 0 0 1 27.9 64.1l-.522.874 1.595 2.39-1.93 1.932-2.391-1.596-.874.521a11.793 11.793 0 0 1-3.121 1.292l-.986.25-.562 2.816h-2.732l-.562-2.816-.986-.25a11.752 11.752 0 0 1-3.121-1.292l-.874-.521-2.39 1.593-1.839-1.837c-.02-.049-.043-.092-.061-.141l1.564-2.343-.522-.872a11.771 11.771 0 0 1-1.3-3.119l-.248-.986zm5.9 13.288l1.842-1.227a14.979 14.979 0 0 0 2.076.859l.691 3.455h8.024l.691-3.455a15.1 15.1 0 0 0 1.566-.648L19 85.066a46.587 46.587 0 0 1-9.878-12.347zm19.02 18.658l1.6-4.28h34.77v9.677H50a46.813 46.813 0 0 1-21.858-5.4zm62.18 5.4H87.1V67.742h-9.681v7.771l-4.124-11h8.963V16.144a46.942 46.942 0 0 1 14.474 32.243h-6.41zm6.452 0h-3.23V51.613h3.226zm0 0" class="cls-1" data-name="Path 409"/>
    </g>
</svg>
