<svg xmlns="http://www.w3.org/2000/svg" width="40.001" height="40" viewBox="0 0 40.001 40">
    <defs>
        <style>
            .cls-1{fill:#16c563}
        </style>
    </defs>
    <g id="rocket" transform="translate(0 -.006)">
        <g id="Group_81" data-name="Group 81" transform="translate(1.813 28.716)">
            <g id="Group_80" data-name="Group 80">
                <path id="Path_320" d="M26.819 367.772a.961.961 0 0 0-1.359 0l-1.973 1.973a.961.961 0 0 0 1.359 1.359l1.973-1.973a.961.961 0 0 0 0-1.359z" class="cls-1" data-name="Path 320" transform="translate(-23.206 -367.491)"/>
            </g>
        </g>
        <g id="Group_83" data-name="Group 83" transform="translate(0 31.507)">
            <g id="Group_82" data-name="Group 82">
                <path id="Path_321" d="M8.217 403.5a.961.961 0 0 0-1.359 0l-6.577 6.573a.961.961 0 1 0 1.359 1.359l6.577-6.577a.961.961 0 0 0 0-1.355z" class="cls-1" data-name="Path 321" transform="translate(0 -403.214)"/>
            </g>
        </g>
        <g id="Group_85" data-name="Group 85" transform="translate(6.079 34.298)">
            <g id="Group_84" data-name="Group 84">
                <path id="Path_322" d="M82.746 439.219a.961.961 0 0 0-1.359 0l-3.287 3.289a.961.961 0 1 0 1.359 1.359l3.289-3.288a.961.961 0 0 0-.002-1.36z" class="cls-1" data-name="Path 322" transform="translate(-77.817 -438.938)"/>
            </g>
        </g>
        <g id="Group_87" data-name="Group 87" transform="translate(19.012 9.146)">
            <g id="Group_86" data-name="Group 86">
                <path id="Path_323" d="M253.472 118.728a5.924 5.924 0 1 0 0 8.378 5.885 5.885 0 0 0 0-8.378zm-1.359 7.019a4 4 0 1 1 0-5.66 3.976 3.976 0 0 1 0 5.66z" class="cls-1" data-name="Path 323" transform="translate(-243.359 -116.993)"/>
            </g>
        </g>
        <g id="Group_89" data-name="Group 89" transform="translate(1.332 .006)">
            <g id="Group_88" data-name="Group 88">
                <path id="Path_324" d="M55.059 1.355a.961.961 0 0 0-.68-.68A19.824 19.824 0 0 0 44.322.633C43.808.766 43.3.922 42.8 1.1a.965.965 0 0 0-.127.045 19.737 19.737 0 0 0-7.331 4.623l-.016.016-.026.026-.025.026-2.942 3.424a17.3 17.3 0 0 0-15.143 8.611.961.961 0 0 0 .594 1.413l5.34 1.359-1.045 2.837a3.854 3.854 0 0 0 .889 4.045l5.241 5.241a3.852 3.852 0 0 0 4.045.889l2.838-1.045 1.36 5.34a.961.961 0 0 0 1.413.594 17.3 17.3 0 0 0 8.61-15.144l3.425-2.941.025-.024.028-.025.016-.016a19.736 19.736 0 0 0 4.623-7.33 1.009 1.009 0 0 0 .044-.128c.173-.5.329-1.005.462-1.519a19.826 19.826 0 0 0-.039-10.062zM19.545 17.749a15.377 15.377 0 0 1 11.071-6.491L24.053 18.9zm4.337 6.395l.894-2.428 1.239 1.239-1.873 3a1.928 1.928 0 0 1-.26-1.811zm1.643 3.221l1.885-3.016 1.308 1.308-2.45 2.45zm2.1 2.1l2.45-2.45 1.308 1.308-3.016 1.885zm3.964 2.386a1.928 1.928 0 0 1-1.809-.26l3-1.873 1.239 1.239zm8.468 2.6a15.484 15.484 0 0 1-2.072 1.739l-1.148-4.509 7.639-6.563a15.407 15.407 0 0 1-4.418 9.333zm8.557-15.421l-12.8 11L25.7 19.925l7.772-9.046.022-.026L36.7 7.121a17.824 17.824 0 0 1 6.11-3.983l9.79 9.782a17.82 17.82 0 0 1-3.986 6.11zm4.644-8.166l-8.387-8.387a17.9 17.9 0 0 1 8.468-.077 17.9 17.9 0 0 1-.082 8.464z" class="cls-1" data-name="Path 324" transform="translate(-17.06 -.006)"/>
            </g>
        </g>
    </g>
</svg>
