<svg xmlns="http://www.w3.org/2000/svg" width="100" height="100" viewBox="0 0 100 100">
    <defs>
        <style>
            .cls-1{fill:#fff}
        </style>
    </defs>
    <g id="seo">
        <path id="Path_224" d="M86.468 84.187a49.908 49.908 0 0 0-.016-68.358l3.411-3.411a4.762 4.762 0 0 0 2.073.485A4.839 4.839 0 1 0 87.1 8.065a4.762 4.762 0 0 0 .485 2.073l-3.411 3.411A49.9 49.9 0 0 0 22.79 8.065H6.452A6.458 6.458 0 0 0 0 14.516v70.968a6.458 6.458 0 0 0 6.452 6.452H22.77a49.946 49.946 0 0 0 54.156.174l6.081 6.081a6.175 6.175 0 1 0 8.732-8.732zm5.468-77.735a1.613 1.613 0 1 1-1.613 1.613 1.616 1.616 0 0 1 1.613-1.613zM50 3.226a46.6 46.6 0 0 1 31.892 12.6l-4.011 4.011a4.74 4.74 0 0 0-4.876.424l-8.683-6.078a4.794 4.794 0 0 0 .194-1.282 4.839 4.839 0 1 0-4.839 4.839 4.8 4.8 0 0 0 2.8-.908l8.683 6.078a4.794 4.794 0 0 0-.194 1.282 4.839 4.839 0 0 0 9.677 0 4.762 4.762 0 0 0-.485-2.073l4.011-4.011a46.685 46.685 0 0 1 .017 63.792L73.671 71.391a25.579 25.579 0 0 0 3.667-11.713h16.211v-3.226h-3.226V30.645h-9.677v25.807H77.42V40.323h-9.678v16.129h-3.225V30.645h-9.678v1.837a26.279 26.279 0 0 0-3.226-.224V14.516a6.458 6.458 0 0 0-6.452-6.452H29.313A46.589 46.589 0 0 1 50 3.226zm27.42 20.968a1.613 1.613 0 1 1-1.613-1.613 1.616 1.616 0 0 1 1.613 1.613zM61.291 12.9a1.613 1.613 0 1 1-1.613-1.613 1.616 1.616 0 0 1 1.613 1.613zm-35.4 46.774H9.678V43.549h20.616a25.648 25.648 0 0 0-4.487 14.516c0 .545.048 1.077.082 1.613zm25.722-24.19a22.9 22.9 0 0 1 3.226.257v3.248a19.617 19.617 0 0 0-3.226-.279 19.355 19.355 0 1 0 19.273 20.968h3.226a22.569 22.569 0 1 1-22.5-24.194zM67.66 59.678A16.3 16.3 0 1 1 54.839 42.3v14.152h-3.226v3.226zm-9.6-3.226V33.871h3.226v22.581zm12.9 0v-12.9h3.226v12.9zm12.9 0V33.871h3.24v22.581zM3.226 14.516a3.229 3.229 0 0 1 3.226-3.226h38.71a3.229 3.229 0 0 1 3.226 3.226v6.452H3.226zm0 9.677h45.161v8.289a25.729 25.729 0 0 0-15.466 7.84H6.452V62.9h19.826a25.635 25.635 0 0 0 .837 3.226H6.452v3.226h21.992a25.95 25.95 0 0 0 4.478 6.452H3.226zM6.452 88.71a3.229 3.229 0 0 1-3.226-3.226v-6.451h33.4a25.614 25.614 0 0 0 11.761 4.614v1.837a3.229 3.229 0 0 1-3.226 3.226zM50 96.774a46.614 46.614 0 0 1-20.679-4.839h15.84a6.458 6.458 0 0 0 6.452-6.452v-1.612a25.609 25.609 0 0 0 13.326-3.749l9.644 9.644A46.558 46.558 0 0 1 50 96.774zm37.372 0a2.929 2.929 0 0 1-2.085-.865L67.636 78.258a25.986 25.986 0 0 0 4.171-4.171L89.46 91.74a2.949 2.949 0 0 1-2.087 5.034zm0 0" class="cls-1" data-name="Path 224"/>
        <path id="Path_225" d="M88 408h16.129v3.226H88zm0 0" class="cls-1" data-name="Path 225" transform="translate(-70.258 -325.742)"/>
        <path id="Path_226" d="M32 136h3.226v3.226H32zm0 0" class="cls-1" data-name="Path 226" transform="translate(-25.548 -108.581)"/>
        <path id="Path_227" d="M64 136h3.226v3.226H64zm0 0" class="cls-1" data-name="Path 227" transform="translate(-51.097 -108.581)"/>
        <path id="Path_228" d="M96 136h3.226v3.226H96zm0 0" class="cls-1" data-name="Path 228" transform="translate(-76.645 -108.581)"/>
        <path id="Path_229" d="M128 136h19.355v3.226H128zm0 0" class="cls-1" data-name="Path 229" transform="translate(-102.194 -108.581)"/>
        <path id="Path_230" d="M32 168h19.355v3.226H32zm0 0" class="cls-1" data-name="Path 230" transform="translate(-25.548 -134.129)"/>
        <path id="Path_231" d="M144 168h3.226v3.226H144zm0 0" class="cls-1" data-name="Path 231" transform="translate(-114.968 -134.129)"/>
    </g>
</svg>
