<svg xmlns="http://www.w3.org/2000/svg" width="40" height="40" viewBox="0 0 40 40">
    <defs>
        <style>
            .cls-1{fill:#16c563}
        </style>
    </defs>
    <g id="translator" transform="translate(-.001)">
        <path id="Path_316" d="M39.97 18.922a3.154 3.154 0 0 0-2.906-3.337l-9.828.027L27.2 3.337A3.153 3.153 0 0 0 24.306 0l-9.078.027L10.2.045a.776.776 0 0 0-.586.28A1.036 1.036 0 0 0 9.376 1a.9.9 0 0 0 .828.947l5.023-.018L24.3 1.9a1.346 1.346 0 0 1 1.24 1.437l.032 13.363a1.545 1.545 0 0 1-.359 1.019 1.164 1.164 0 0 1-.883.424l-11.672.045a.766.766 0 0 0-.625.334l-2.657 3.557-3-3.581a.744.744 0 0 0-.594-.289l-2.844.009a1.151 1.151 0 0 1-.875-.415 1.551 1.551 0 0 1-.363-1.018L1.658 3.418A1.545 1.545 0 0 1 2.017 2.4a1.164 1.164 0 0 1 .883-.425h1.086a.893.893 0 0 0 .82-.956 1 1 0 0 0-.25-.676.737.737 0 0 0-.586-.271H2.892a2.7 2.7 0 0 0-2.047.983A3.634 3.634 0 0 0 0 3.427l.032 13.366a3.565 3.565 0 0 0 .859 2.363 2.717 2.717 0 0 0 2.039.974h.016l2.492-.009 3.383 4.04a.8.8 0 0 0 .594.289h.023a.773.773 0 0 0 .6-.334l3-4.022 3.039-.009.008 12.275a3.6 3.6 0 0 0 .852 2.363 2.69 2.69 0 0 0 2.047.974l8.031-.027 3.023 4a.774.774 0 0 0 .6.325h.016a.757.757 0 0 0 .594-.3l3.367-4.059 2.492-.009a2.7 2.7 0 0 0 2.047-.983A3.616 3.616 0 0 0 40 32.279zM38.345 32.3a1.545 1.545 0 0 1-.359 1.019 1.164 1.164 0 0 1-.883.424l-2.844.009a.769.769 0 0 0-.594.3l-2.984 3.6L28 34.1a.777.777 0 0 0-.617-.325h-.008l-8.39.018a1.151 1.151 0 0 1-.875-.415 1.545 1.545 0 0 1-.367-1.01l-.008-12.284 6.617-.018a3 3 0 0 0 2.8-2.535l9.928-.031a1.347 1.347 0 0 1 1.242 1.434zm0 0" class="cls-1" data-name="Path 316"/>
        <path id="Path_317" d="M81.215 2.564l.016.008a.8.8 0 0 0 .234.031A.826.826 0 0 0 81.7.986l-.016-.008a.828.828 0 0 0-1.031.555.845.845 0 0 0 .562 1.031zm0 0" class="cls-1" data-name="Path 317" transform="translate(-74.324 -.869)"/>
        <path id="Path_318" d="M128.211 62.73c.383 0 .609-.133.688-.4l.422-1.555h2.617l.422 1.555c.07.266.3.4.688.4a1.714 1.714 0 0 0 .875-.25.714.714 0 0 0 .43-.6.783.783 0 0 0-.023-.149l-2.375-7.742a.89.89 0 0 0-.485-.516 1.949 1.949 0 0 0-.851-.172 2.1 2.1 0 0 0-.851.172.847.847 0 0 0-.485.516l-2.359 7.75a.779.779 0 0 0-.023.148.719.719 0 0 0 .43.6 1.811 1.811 0 0 0 .883.242zm1.531-3.555l.875-3.219.875 3.219zm0 0" class="cls-1" data-name="Path 318" transform="translate(-116.983 -48.137)"/>
        <path id="Path_319" d="M310.421 230.883a.532.532 0 0 0-.125-.4 1.058 1.058 0 0 0-.774-.281.6.6 0 0 0-.641.437 6.835 6.835 0 0 0-1.414.141c.008-.25.016-.422.031-.617.055 0 .109-.008.172-.008.133-.008.289-.016.492-.031s.43-.039.688-.07c.281-.031.578-.062.851-.078 1.024-.1 1.352-.312 1.352-.883a.67.67 0 0 0-.641-.75 1.438 1.438 0 0 0-.313.031l-.141.023a22.3 22.3 0 0 1-2.328.273 6 6 0 0 0 .055-.641c0-.406-.266-.633-.75-.633-.617.008-.8.273-.891 1.336h-.344c-.117 0-.289 0-.453-.008s-.328-.008-.437-.008c-.524 0-.735.2-.735.734 0 .789.453.789 1.367.789.164 0 .344 0 .523-.016v.031c-.016.352-.031.68-.039 1.047a3.689 3.689 0 0 0-2.328 3.242 1.619 1.619 0 0 0 1.7 1.852 2.794 2.794 0 0 0 1.18-.266.56.56 0 0 0 .547.289c.539 0 .937-.312.937-.719a1.524 1.524 0 0 0-.1-.492 10.07 10.07 0 0 0 2.063-2.937 1.271 1.271 0 0 1 .765 1.234c0 1.1-.922 1.468-1.531 1.711l-.016.008a.722.722 0 0 0-.5.719.842.842 0 0 0 .828.844 3.285 3.285 0 0 0 2.828-3.3 2.56 2.56 0 0 0-1.878-2.603zm-2 1.148a6.561 6.561 0 0 1-.891 1.453 16.328 16.328 0 0 1-.078-1.266 5.056 5.056 0 0 1 .969-.187zm-2.453.945a16.44 16.44 0 0 0 .172 1.664 1.607 1.607 0 0 1-.719.242c-.2 0-.336-.18-.336-.445a1.951 1.951 0 0 1 .883-1.46zm0 0" class="cls-1" data-name="Path 319" transform="translate(-279.881 -205.869)"/>
    </g>
</svg>
