<svg xmlns="http://www.w3.org/2000/svg" id="video-marketing" width="100" height="100" viewBox="0 0 100 100">
    <defs>
        <style>
            .cls-1{fill:#fff}
        </style>
    </defs>
    <path id="Path_247" d="M288.129 120a16.129 16.129 0 1 0 16.129 16.129A16.147 16.147 0 0 0 288.129 120zm0 29.032a12.9 12.9 0 1 1 12.9-12.9 12.918 12.918 0 0 1-12.9 12.9zm0 0" class="cls-1" data-name="Path 247" transform="translate(-217.161 -95.806)"/>
    <path id="Path_248" d="M328 153.055v18.93l14.2-9.465zm3.226 6.026l5.156 3.438-5.156 3.438zm0 0" class="cls-1" data-name="Path 248" transform="translate(-261.871 -122.197)"/>
    <path id="Path_249" d="M100 14.516H85.208a49.92 49.92 0 0 0-62.628-6.3V6.452H12.9v24.193H9.677V0H0v33.871h2.658a49.521 49.521 0 0 0-.965 3.226h-.08v.303a50 50 0 0 0 96.7 25.5H100zm-54.358 48.8a11.8 11.8 0 0 1 1.292 3.121l.25.986 2.816.565v2.732l-2.816.562-.25.986a11.752 11.752 0 0 1-1.292 3.121l-.521.874 1.593 2.39-1.932 1.93-2.39-1.595-.874.522A11.841 11.841 0 0 1 38.4 80.8l-.986.248-.562 2.818h-2.733l-.564-2.816-.986-.248a11.742 11.742 0 0 1-3.119-1.294l-.874-.522-2.39 1.595-1.932-1.93 1.593-2.39-.521-.874a11.793 11.793 0 0 1-1.292-3.121l-.25-.986-2.816-.562V67.99l2.816-.562.25-.986a11.752 11.752 0 0 1 1.292-3.121l.521-.874-1.593-2.39 1.932-1.93 2.389 1.592.874-.519a11.9 11.9 0 0 1 3.12-1.3l.986-.248.562-2.818h2.731l.564 2.816.986.248A11.8 11.8 0 0 1 41.52 59.2l.416.248V62.9h3.457zm-.48-3.643v-3.221h3.226v3.226zm3.226-38.71h-3.227v-3.221h3.226zm-3.226 3.226h3.226v3.226h-3.227zm0 6.452h3.226v3.226h-3.227zm0 6.452h3.226v3.226h-3.227zm0 6.452h3.226v3.226h-3.227zm0 6.452h3.226v3.226h-3.227zm6.452-32.258h38.71v41.938H51.613zm45.16 35.487h-3.226V50h3.226zm0-6.452h-3.226v-3.226h3.226zm0-6.452h-3.226V37.1h3.226zm0-6.452h-3.226v-3.225h3.226zm0-6.452h-3.226v-3.225h3.226zm-3.226 29.034h3.226v3.226h-3.226zm3.226-35.484h-3.226v-3.226h3.226zM16.129 9.677h3.226v20.968h-3.226zM3.226 3.226h3.226v27.419H3.226zM92.58 69.355H56.451v3.226h34.531q-.907 1.657-1.937 3.226H56.451v3.226h30.262A46.8 46.8 0 0 1 3.226 50c0-1.081.048-2.155.121-3.226h27.3v-3.226H3.669c.15-1.084.345-2.158.571-3.226h26.405V37.1H5.029a45.925 45.925 0 0 1 1.066-3.226h32.614v-3.229h-3.225v-12.9h-9.678v12.9H22.58V12.132a46.7 46.7 0 0 1 57.883 2.384H41.935v41.276a14.928 14.928 0 0 0-1.75-.724l-.692-3.455h-8.02l-.692 3.455a15.079 15.079 0 0 0-2.078.859l-2.93-1.955-5.673 5.675 1.953 2.93a14.978 14.978 0 0 0-.859 2.076l-3.453.691v8.024l3.455.691a15.175 15.175 0 0 0 .859 2.076l-1.955 2.93 5.671 5.674 2.93-1.955a15.078 15.078 0 0 0 2.078.859l.692 3.453h8.02l.692-3.455a15.277 15.277 0 0 0 2.078-.859l2.93 1.955 5.671-5.674-1.953-2.93a14.979 14.979 0 0 0 .859-2.076l3.453-.691v-8.024l-3.455-.691a15.2 15.2 0 0 0-.724-1.75h45.887a46.871 46.871 0 0 1-2.348 6.453zm-60.322-38.71h-3.226v-9.677h3.226zm0 0" class="cls-1" data-name="Path 249"/>
    <path id="Path_250" d="M144.065 304a8.065 8.065 0 1 0 8.065 8.065 8.074 8.074 0 0 0-8.065-8.065zm0 12.9a4.839 4.839 0 1 1 4.839-4.839 4.845 4.845 0 0 1-4.839 4.839zm0 0" class="cls-1" data-name="Path 250" transform="translate(-108.581 -242.71)"/>
    <path id="Path_251" d="M32 248h3.226v3.226H32zm0 0" class="cls-1" data-name="Path 251" transform="translate(-25.549 -198)"/>
    <path id="Path_252" d="M64 248h3.226v3.226H64zm0 0" class="cls-1" data-name="Path 252" transform="translate(-51.097 -198)"/>
    <path id="Path_253" d="M96 248h3.226v3.226H96zm0 0" class="cls-1" data-name="Path 253" transform="translate(-76.645 -198)"/>
    <path id="Path_254" d="M304 408h3.226v3.226H304zm0 0" class="cls-1" data-name="Path 254" transform="translate(-242.71 -325.742)"/>
    <path id="Path_255" d="M336 408h3.226v3.226H336zm0 0" class="cls-1" data-name="Path 255" transform="translate(-268.258 -325.742)"/>
    <path id="Path_256" d="M368 408h3.226v3.226H368zm0 0" class="cls-1" data-name="Path 256" transform="translate(-293.807 -325.742)"/>
</svg>
