<svg xmlns="http://www.w3.org/2000/svg" width="100" height="100" viewBox="0 0 100 100">
    <defs>
        <style>
            .cls-1{fill:#fff}
        </style>
    </defs>
    <g id="web">
        <path id="Path_257" d="M212.839 11.29a4.787 4.787 0 0 0 2.953-1.034l11.7 6.4a4.834 4.834 0 1 0 9.544 1.088 4.779 4.779 0 0 0-.158-1.166l10.17-7.878a4.794 4.794 0 0 0 2.887.979 4.839 4.839 0 1 0-4.835-4.84 4.789 4.789 0 0 0 .158 1.166l-10.174 7.877a4.741 4.741 0 0 0-5.84.055l-11.7-6.4a4.833 4.833 0 1 0-4.7 3.75zm37.1-8.065a1.613 1.613 0 1 1-1.613 1.613 1.615 1.615 0 0 1 1.609-1.612zm-17.742 12.9a1.613 1.613 0 1 1-1.613 1.613 1.615 1.615 0 0 1 1.61-1.609zM212.839 4.839a1.613 1.613 0 1 1-1.613 1.613 1.615 1.615 0 0 1 1.613-1.613zm0 0" class="cls-1" data-name="Path 257" transform="translate(-166.065)"/>
        <path id="Path_258" d="M96 144h3.226v3.226H96zm0 0" class="cls-1" data-name="Path 258" transform="translate(-76.646 -114.968)"/>
        <path id="Path_259" d="M128 144h3.226v3.226H128zm0 0" class="cls-1" data-name="Path 259" transform="translate(-102.194 -114.968)"/>
        <path id="Path_260" d="M160 144h3.226v3.226H160zm0 0" class="cls-1" data-name="Path 260" transform="translate(-127.742 -114.968)"/>
        <path id="Path_261" d="M297.677 272H288v9.677h9.677zm-3.226 6.452h-3.226v-3.226h3.226zm0 0" class="cls-1" data-name="Path 261" transform="translate(-229.936 -217.161)"/>
        <path id="Path_262" d="M233.677 272H224v9.677h9.677zm-3.226 6.452h-3.226v-3.226h3.226zm0 0" class="cls-1" data-name="Path 262" transform="translate(-178.839 -217.161)"/>
        <path id="Path_263" d="M96 304h22.581v3.226H96zm0 0" class="cls-1" data-name="Path 263" transform="translate(-76.646 -242.71)"/>
        <path id="Path_264" d="M96 272h22.581v3.226H96zm0 0" class="cls-1" data-name="Path 264" transform="translate(-76.646 -217.161)"/>
        <path id="Path_265" d="M96 217.677h22.581V208H96zm9.677-3.226v-3.226h3.223v3.226zm9.677 0h-3.226v-3.226h3.226zm-16.129-3.226h3.226v3.226h-3.225zm0 0" class="cls-1" data-name="Path 265" transform="translate(-76.646 -166.064)"/>
        <path id="Path_266" d="M87.267 22.09l-.171.154v-3.917h-3.225v4.839h-7.365l-4.839 8.064H60.591l-4.839-8.065h-7.365V19.94h-3.226V28H16.129a3.229 3.229 0 0 0-3.229 3.23v41.936a3.229 3.229 0 0 0 3.226 3.226h25.809v3.388a8.078 8.078 0 0 0-6.452 7.9v9.677a7.931 7.931 0 0 0 .5 2.69 46.783 46.783 0 0 1 3.1-90.119l-.75-3.137a50.013 50.013 0 0 0 1.1 97.513l.008-.043a7.746 7.746 0 0 0 5.893.944c1.534.142 3.1.216 4.66.216A50 50 0 0 0 87.267 22.09zm-6.623 4.3h3.226v20.969h-3.225zm-3.226 1.522v19.447h-3.225v-14.07zM61.29 34.456h3.226v12.9H61.29zm6.452 0h3.226v12.9h-3.226zm-9.678-1.166v14.07h-3.226V27.914zm-6.452-6.9v20.969h-3.225V26.391zm-6.451 4.84v9.677H16.129V31.23zm-1.613 51.613a4.845 4.845 0 0 1 4.839 4.839v3.226h-3.226v-4.839h-3.226v4.839h-3.226v-3.226a4.845 4.845 0 0 1 4.839-4.839zm-4.839 14.516v-3.226h9.677v3.226a4.839 4.839 0 0 1-9.677 0zM50 102.2h-.04a7.987 7.987 0 0 0 1.653-4.837v-9.681a8.08 8.08 0 0 0-6.452-7.9v-3.391a3.229 3.229 0 0 0-3.226-3.226H16.129V44.133h29.032v6.452h25.806v22.581h-22.58v3.226h22.58a3.229 3.229 0 0 0 3.226-3.226V50.585H87.1V26.95A46.762 46.762 0 0 1 50 102.2zm0 0" class="cls-1" data-name="Path 266" transform="translate(0 -5.424)"/>
    </g>
</svg>
