<svg xmlns="http://www.w3.org/2000/svg" width="100.001" height="100" viewBox="0 0 100.001 100">
    <defs>
        <style>
            .cls-1{fill:#16c563}
        </style>
    </defs>
    <g id="worldwide" transform="translate(.001)">
        <path id="Path_400" d="M62.452 44.9A6.452 6.452 0 1 0 56 38.452a6.458 6.458 0 0 0 6.452 6.448zm0-9.677a3.226 3.226 0 1 1-3.226 3.226 3.229 3.229 0 0 1 3.226-3.223zm0 0" class="cls-1" data-name="Path 400" transform="translate(-44.71 -25.548)"/>
        <path id="Path_401" d="M382.452 124.9a6.452 6.452 0 1 0-6.452-6.448 6.458 6.458 0 0 0 6.452 6.448zm0-9.677a3.226 3.226 0 1 1-3.226 3.226 3.229 3.229 0 0 1 3.226-3.223zm0 0" class="cls-1" data-name="Path 401" transform="translate(-300.194 -89.419)"/>
        <path id="Path_402" d="M95.132 28.465A12.873 12.873 0 0 0 78.29 16.76a32.2 32.2 0 0 0-48.866-9.3A12.893 12.893 0 0 0 4.838 12.9v.347a12.945 12.945 0 0 0 1.576 6.179l1.758 3.223A49.989 49.989 0 1 0 100 50a49.54 49.54 0 0 0-4.868-21.536zm-6.423 31.213v16.548a47.064 47.064 0 0 1-3.226 4.2V66.129h-3.225v17.694q-1.549 1.475-3.226 2.809V74.194h-3.226v14.792a46.645 46.645 0 0 1-11.29 5.473v-6.9a4.805 4.805 0 0 1 .9-2.813l5.659-7.926a8.014 8.014 0 0 0 1.5-4.689v-16.9a32.29 32.29 0 0 0 5.342-6.852l.534.977a4.331 4.331 0 0 0 7.6 0l7.527-13.8c.2-.368.366-.751.531-1.137a46.8 46.8 0 0 1-2.182 36.267V59.678zm-56.451-4.839v.389a29.617 29.617 0 0 1-2.347-2.008 31.085 31.085 0 0 1 7.61-4.329c.185.408.384.814.584 1.219a4.825 4.825 0 0 0-5.847 4.729zm-3.189-35.411a12.878 12.878 0 0 0 1.39-4.132 44.163 44.163 0 0 0 5.97 2.929 39.626 39.626 0 0 0-.129 27.661 33.814 33.814 0 0 0-8.614 4.97 28.821 28.821 0 0 1-6.664-16.919 4.326 4.326 0 0 0 .522-.71zM50 3.754a42.465 42.465 0 0 1 9.166 12.486A29.043 29.043 0 0 1 50 17.742a32.054 32.054 0 0 1-9.211-1.41A42.445 42.445 0 0 1 50 3.754zm4.424-.178a29.19 29.19 0 0 1 14.885 7.039 30.213 30.213 0 0 1-7.084 4.434 44.961 44.961 0 0 0-7.8-11.473zM50 20.968a32.5 32.5 0 0 0 10.458-1.734A36.216 36.216 0 0 1 62.9 32.258a36.483 36.483 0 0 1-2.52 13.325 4.792 4.792 0 0 0-5.729-1.683 4.811 4.811 0 0 0-9.3 0 4.792 4.792 0 0 0-5.729 1.679 36.2 36.2 0 0 1-.111-26.268A35.42 35.42 0 0 0 50 20.968zm11.29 41.476c.542-.2 1.085-.4 1.613-.63v6.735a.806.806 0 0 1-1.613 0zm0-3.461V51.3c.261-.489.51-.983.748-1.476a39.628 39.628 0 0 1 7.236 4.134 29.029 29.029 0 0 1-7.984 5.024zm-25.807-4.144a1.613 1.613 0 1 1 3.226 0V62.9h3.226V48.387a1.613 1.613 0 1 1 3.226 0V62.9h3.226V45.162a1.613 1.613 0 0 1 3.226 0V62.9h3.226V48.387a1.613 1.613 0 1 1 3.226 0v20.162a4.032 4.032 0 0 0 8.065 0v-8.355a32.429 32.429 0 0 0 3.226-2.161v14.093a4.805 4.805 0 0 1-.9 2.813l-5.659 7.926a8.138 8.138 0 0 0-.608 1.006H41.2c-.1-.228-.2-.457-.329-.674l-4.751-8.316a4.853 4.853 0 0 1-.637-2.4zM41.929 87.1h19.4c-.009.152-.035.3-.035.455v2.771H41.935V87.2c0-.032-.006-.066-.006-.1zm50.006-58.067v.347a9.715 9.715 0 0 1-1.181 4.634l-7.526 13.8a1.151 1.151 0 0 1-1.941 0l-7.527-13.8a9.715 9.715 0 0 1-1.181-4.634v-.347a9.677 9.677 0 0 1 19.355 0zM75.372 18.139a12.9 12.9 0 0 0-6.018 10.893v.347a12.944 12.944 0 0 0 1.576 6.179l5.143 9.431a29.064 29.064 0 0 1-4.494 6.667 41.28 41.28 0 0 0-8.239-4.782 39.713 39.713 0 0 0 .16-28.832 32.536 32.536 0 0 0 8.111-5.142 28.856 28.856 0 0 1 3.761 5.244zM45.559 3.594a44.9 44.9 0 0 0-7.883 11.658 40.486 40.486 0 0 1-7.1-3.678c-.028-.262-.076-.521-.12-.779a28.9 28.9 0 0 1 15.1-7.2zM8.064 12.9a9.677 9.677 0 0 1 19.355 0v.347a9.715 9.715 0 0 1-1.181 4.634l-7.526 13.8a1.151 1.151 0 0 1-1.941 0l-7.527-13.8a9.715 9.715 0 0 1-1.18-4.631zm1.873 12.987l4 7.341a4.326 4.326 0 0 0 3.8 2.256c.06 0 .113-.021.172-.023a32.034 32.034 0 0 0 14.348 23.723v13.3a8.059 8.059 0 0 0 1.063 4l4.752 8.316a4.853 4.853 0 0 1 .637 2.4v8.191a46.558 46.558 0 0 1-14.516-6.4V74.194h-3.226v12.438q-1.676-1.333-3.226-2.809V66.129h-3.226v14.294a47.067 47.067 0 0 1-3.226-4.2V59.678H8.064v11.01a46.659 46.659 0 0 1 1.873-44.8zm32 70.178v-2.516H61.29v1.841a46.484 46.484 0 0 1-19.355.676zm0 0" class="cls-1" data-name="Path 402"/>
        <path id="Path_403" d="M376 296h3.226v11.29H376zm0 0" class="cls-1" data-name="Path 403" transform="translate(-300.194 -236.322)"/>
        <path id="Path_404" d="M408 296h3.226v3.226H408zm0 0" class="cls-1" data-name="Path 404" transform="translate(-325.742 -236.322)"/>
        <path id="Path_405" d="M104 296h3.226v11.29H104zm0 0" class="cls-1" data-name="Path 405" transform="translate(-83.033 -236.322)"/>
        <path id="Path_406" d="M72 296h3.226v3.226H72zm0 0" class="cls-1" data-name="Path 406" transform="translate(-57.484 -236.322)"/>
    </g>
</svg>
